<svg width="31" height="27" viewBox="0 0 31 27" fill="none" xmlns="http://www.w3.org/2000/svg">
<rect x="0.178323" y="0.179578" width="25.8064" height="19.5427" rx="3.75821" transform="matrix(0.976583 -0.25801 -0.264848 0.974751 5.36026 6.83814)" fill="url(#paint0_linear_3_3419)" stroke="#666666" stroke-width="0.501095"/>
<path d="M17.5917 3.68117C17.6538 3.68133 17.6995 3.71022 17.7179 3.76093C17.7362 3.81162 17.7258 3.8807 17.6898 3.95213C17.6539 4.02342 17.5949 4.09177 17.5258 4.14214C15.7002 5.48089 12.6262 8.98018 11.949 11.4135C11.9957 13.1551 11.4492 15.1664 10.3757 17.204C9.7335 19.6259 11.2351 21.9142 12.556 22.433C12.582 22.4408 12.6027 22.4559 12.6166 22.4771C12.6306 22.4982 12.6371 22.5257 12.6366 22.5566C12.6361 22.5874 12.6288 22.6212 12.614 22.6562C12.5991 22.6915 12.5769 22.7271 12.5502 22.7606C12.5167 22.8051 12.4755 22.8463 12.4305 22.8788C12.3856 22.9112 12.3382 22.9347 12.2934 22.9468C12.2476 22.959 12.2061 22.9578 12.1737 22.944C10.7623 22.3991 9.24872 20.1163 9.805 17.5677L2.06196 19.6134C1.99966 19.624 1.94813 19.6098 1.91783 19.5737C1.8877 19.5376 1.88082 19.4821 1.89814 19.4181C1.91559 19.3539 1.9561 19.2852 2.01223 19.2262C2.06838 19.1673 2.13616 19.1216 2.20189 19.0984L9.99357 17.0398C10.9454 15.2037 11.4371 13.3941 11.413 11.8158L3.62131 13.8743C3.55329 13.8922 3.4956 13.8823 3.46054 13.847C3.42552 13.8116 3.41588 13.754 3.43434 13.686C3.45281 13.6181 3.49767 13.546 3.55882 13.4853C3.61997 13.4246 3.69241 13.3802 3.76045 13.3622L11.5035 11.3165C12.3559 8.68059 15.4471 5.19029 17.3861 3.76023C17.4555 3.70978 17.5297 3.68105 17.5917 3.68117ZM28.9389 6.71012C29.0069 6.69228 29.0647 6.70218 29.0997 6.73745C29.1347 6.77278 29.1443 6.83055 29.1259 6.89841C29.1074 6.96638 29.0624 7.03933 29.0012 7.10013C28.9401 7.16065 28.8677 7.20421 28.7998 7.22225L20.9928 9.28482C20.041 11.1209 19.5493 12.9306 19.5734 14.5089L27.3804 12.4463C27.4426 12.4357 27.4942 12.4499 27.5245 12.486C27.5547 12.5222 27.5614 12.5783 27.5439 12.6425C27.5265 12.7065 27.486 12.7746 27.4301 12.8334C27.374 12.8923 27.3061 12.9381 27.2404 12.9613L19.4898 15.009C18.64 17.6352 15.5428 21.1474 13.6071 22.5653C13.5617 22.5996 13.5131 22.6247 13.4674 22.6367C13.4226 22.6482 13.3818 22.648 13.3489 22.6362C13.3159 22.6242 13.2924 22.6002 13.2798 22.5678C13.2692 22.5437 13.2652 22.5148 13.2694 22.4822C13.2737 22.4493 13.2855 22.4134 13.304 22.3776C13.3225 22.3419 13.3478 22.3066 13.3772 22.2743C13.4067 22.2421 13.4402 22.2132 13.4754 22.1901C15.3044 20.8389 18.377 17.3422 19.0533 14.9114C19.0019 13.1583 19.5528 11.1306 20.6385 9.07713C20.6679 9.01985 20.7125 8.96441 20.7656 8.91897C20.8188 8.8735 20.8779 8.84048 20.9336 8.8251L28.9389 6.71012ZM18.6236 3.40854C18.6953 3.37313 18.7643 3.36403 18.8148 3.38279C19.814 3.76453 20.7616 4.99596 21.1254 6.36316C21.1362 6.38823 21.1398 6.41852 21.1348 6.45258C21.1296 6.48681 21.1157 6.52415 21.0956 6.56102C21.0754 6.59785 21.0487 6.63396 21.0173 6.66651C20.986 6.69893 20.9508 6.7273 20.9142 6.74941C20.8738 6.77777 20.831 6.7986 20.7908 6.8094C20.7431 6.82205 20.6995 6.82138 20.6657 6.80711C20.632 6.79282 20.6093 6.7652 20.5995 6.72829C20.1972 5.2103 19.1912 4.20054 18.4299 3.90328C18.3795 3.88449 18.3515 3.83911 18.3517 3.77726C18.352 3.71526 18.3804 3.64141 18.4313 3.57246C18.4822 3.50342 18.5518 3.44408 18.6236 3.40854ZM17.7417 4.8918C17.8635 4.85961 17.9676 4.87693 18.0304 4.9401C18.0932 5.00334 18.1097 5.10757 18.0767 5.22917C18.0521 5.31991 18.0012 5.4159 17.9302 5.50469C17.8592 5.59344 17.7715 5.67164 17.6781 5.72856C17.5847 5.78548 17.4894 5.8187 17.4051 5.82455C17.3207 5.83039 17.2505 5.8083 17.2036 5.76114C17.1569 5.71396 17.1352 5.64352 17.1416 5.55928C17.1481 5.47508 17.1828 5.38047 17.2402 5.28759C17.2978 5.19458 17.3759 5.10681 17.4652 5.03643C17.5544 4.96608 17.6508 4.91584 17.7417 4.8918Z" fill="#666666"/>
<defs>
<linearGradient id="paint0_linear_3_3419" x1="-2.50547" y1="-4.03446e-07" x2="28.4371" y2="20.0438" gradientUnits="userSpaceOnUse">
<stop stop-color="#DDD9D6"/>
<stop offset="0.212761" stop-color="#8A868C"/>
<stop offset="0.548384" stop-color="#F2F3F3" stop-opacity="0.8"/>
<stop offset="0.914316" stop-color="#807C80"/>
<stop offset="1" stop-color="#A6A8AB"/>
</linearGradient>
</defs>
</svg>
