<svg width="41" height="16" viewBox="0 0 41 16" fill="none" xmlns="http://www.w3.org/2000/svg">
<rect x="0.43322" y="0.169559" width="25.8064" height="19.5427" rx="3.75821" transform="matrix(1.01256 -0.0397835 0.716538 0.716538 -0.126812 1.11191)" fill="url(#paint0_linear_3_3400)" stroke="#666666" stroke-width="0.501095"/>
<path d="M12.8883 0.655175C12.9708 0.665571 13.0623 0.694947 13.1423 0.737554C13.2222 0.780149 13.2839 0.832219 13.3145 0.882052C13.345 0.931768 13.3416 0.975238 13.3051 1.00314C12.3504 1.74559 12.1083 3.96743 13.876 5.75357C15.8454 7.11958 17.3236 8.59779 18.1318 10.0094C19.9332 11.7924 24.4304 13.8256 26.7507 14.4487C26.7937 14.4591 26.8377 14.4744 26.8793 14.4931C26.9211 14.512 26.9598 14.5345 26.993 14.5585C27.026 14.5824 27.0532 14.6075 27.0721 14.6325C27.091 14.6575 27.1022 14.6822 27.1035 14.7039C27.1078 14.7331 27.0966 14.7578 27.0725 14.7757C27.0484 14.7936 27.0114 14.804 26.9652 14.8061C26.9179 14.8081 26.8621 14.8009 26.8041 14.7848C24.3355 14.1265 19.8275 12.0955 17.7731 10.1995L9.74483 10.5149C9.67386 10.5129 9.58996 10.4933 9.51021 10.4602C9.43036 10.4269 9.36019 10.3821 9.31294 10.3348C9.26569 10.2876 9.24423 10.2408 9.2541 10.2041C9.26396 10.1673 9.30382 10.1429 9.36557 10.1357L17.4443 9.81826C16.6953 8.54352 15.3655 7.21375 13.6048 5.97876L5.52607 6.29618C5.45558 6.29889 5.36798 6.28153 5.28291 6.24828C5.19765 6.21491 5.12112 6.16767 5.07115 6.1177C5.02137 6.06782 5.00174 6.01891 5.01631 5.98168C5.0309 5.94445 5.07847 5.92184 5.14891 5.91901L13.1772 5.60358C11.4202 3.68842 11.6964 1.47698 12.7015 0.682149C12.7382 0.654248 12.8057 0.644786 12.8883 0.655175ZM31.2549 4.89331C31.3254 4.89059 31.4129 4.90788 31.498 4.94121C31.5832 4.97456 31.6592 5.02118 31.7091 5.07109C31.759 5.12099 31.7784 5.16983 31.7639 5.20711C31.7494 5.24435 31.7018 5.26694 31.6313 5.26977L23.5368 5.58781C24.2858 6.86262 25.6162 8.19294 27.377 9.428L35.4715 9.10997C35.5425 9.11199 35.6264 9.13156 35.7062 9.16475C35.7859 9.19797 35.8562 9.24288 35.9034 9.29008C35.9504 9.33714 35.9713 9.38349 35.9616 9.42015C35.9517 9.45685 35.9118 9.48129 35.8501 9.48853L27.8139 9.80427C29.5638 11.7123 29.3037 13.9399 28.2896 14.7257C28.267 14.745 28.23 14.7565 28.1824 14.7583C28.1357 14.7598 28.0814 14.753 28.0247 14.7383C27.968 14.7235 27.9105 14.7009 27.8583 14.6736C27.8178 14.653 27.7809 14.6298 27.7507 14.6051C27.7204 14.5801 27.6967 14.554 27.6821 14.5292C27.6675 14.5044 27.6623 14.4811 27.666 14.4608C27.6698 14.4405 27.6826 14.4235 27.7039 14.4113C28.6496 13.6598 28.894 11.4403 27.1281 9.65595C25.1396 8.28004 23.6489 6.78946 22.8394 5.36722C22.8156 5.32741 22.814 5.29152 22.8347 5.26486C22.8554 5.23822 22.8977 5.22222 22.9547 5.21942L31.2549 4.89331ZM13.9575 0.612438C14.0138 0.596638 14.0952 0.600958 14.1827 0.62395C15.9262 1.08691 18.5318 2.20412 20.5121 3.33076C20.5539 3.3521 20.5919 3.37632 20.6225 3.40206C20.6531 3.42791 20.6756 3.45474 20.6892 3.48016C20.7028 3.50555 20.707 3.52931 20.701 3.54951C20.695 3.56963 20.6795 3.58594 20.6551 3.59713C20.6325 3.61256 20.5987 3.62174 20.5572 3.62352C20.508 3.62547 20.4499 3.61759 20.3898 3.60101C20.3293 3.58428 20.2681 3.55905 20.2146 3.52862C18.0181 2.27806 15.5777 1.32405 14.2425 0.966313C14.1551 0.943308 14.0682 0.903295 14.0007 0.85509C13.9332 0.806772 13.89 0.753872 13.8819 0.708494C13.8739 0.663066 13.9012 0.628288 13.9575 0.612438ZM14.4126 1.6236C14.539 1.61863 14.6959 1.64932 14.8485 1.70901C15.0011 1.76873 15.1371 1.85274 15.2265 1.94215C15.2932 2.00884 15.3309 2.07531 15.334 2.13282C15.3371 2.1903 15.3064 2.23682 15.2449 2.26577C15.1834 2.29472 15.0934 2.30489 14.988 2.2955C14.8825 2.28612 14.7652 2.25728 14.6513 2.21273C14.5376 2.16819 14.4318 2.10969 14.348 2.04502C14.2643 1.98041 14.2067 1.91237 14.1811 1.84941C14.1556 1.78636 14.163 1.73083 14.2043 1.69069C14.2456 1.65056 14.3184 1.62731 14.4126 1.6236Z" fill="#666666"/>
<defs>
<linearGradient id="paint0_linear_3_3400" x1="-2.50547" y1="-4.03446e-07" x2="28.4371" y2="20.0438" gradientUnits="userSpaceOnUse">
<stop stop-color="#DDD9D6"/>
<stop offset="0.212761" stop-color="#8A868C"/>
<stop offset="0.548384" stop-color="#F2F3F3" stop-opacity="0.8"/>
<stop offset="0.914316" stop-color="#807C80"/>
<stop offset="1" stop-color="#A6A8AB"/>
</linearGradient>
</defs>
</svg>
