<svg width="24" height="24" viewBox="0 0 24 24" fill="none" xmlns="http://www.w3.org/2000/svg">
<path d="M16.0386 22.71H3.00366C2.07312 22.71 1.31616 21.9531 1.31616 21.0225L1.3125 2.97784C1.3125 2.0473 2.06946 1.29034 3 1.29034H13.4736C13.6227 1.29034 13.7659 1.34967 13.8713 1.45514L17.5576 5.14105C17.6631 5.24652 17.7224 5.38971 17.7224 5.53876V8.65375C17.7224 8.96429 17.4705 9.21625 17.1599 9.21625C16.8494 9.21625 16.5974 8.96429 16.5974 8.65375V5.77167L13.2407 2.41534H3C2.68982 2.41534 2.4375 2.66766 2.4375 2.97784L2.44116 21.0225C2.44116 21.3327 2.69348 21.585 3.00366 21.585H16.0386C16.3488 21.585 16.6011 21.3327 16.6011 21.0225V20.5296C16.6011 20.2191 16.853 19.9671 17.1636 19.9671C17.4741 19.9671 17.7261 20.2191 17.7261 20.5296V21.0225C17.7261 21.9531 16.9691 22.71 16.0386 22.71Z" fill="#27AE60"/>
<path d="M17.1617 6.10109H13.4755C13.1649 6.10109 12.913 5.84914 12.913 5.53859V1.85268C12.913 1.62526 13.0499 1.42019 13.2601 1.33303C13.47 1.24587 13.7124 1.29385 13.8732 1.45498L17.5594 5.14089C17.7202 5.30166 17.7686 5.54372 17.6814 5.75393C17.5942 5.96414 17.3892 6.10109 17.1617 6.10109ZM14.038 4.97609H15.8038L14.038 3.21059V4.97609Z" fill="#27AE60"/>
<path d="M18.3186 18.7611C18.13 18.7611 17.9455 18.6662 17.8393 18.4938L16.8249 16.8469C16.6619 16.5821 16.7443 16.2357 17.0087 16.0727C17.2735 15.9105 17.6199 15.9918 17.7829 16.2566L18.7973 17.9034C18.9602 18.1682 18.8778 18.5146 18.6134 18.6776C18.5212 18.734 18.4194 18.7611 18.3186 18.7611Z" fill="#27AE60"/>
<path d="M19.553 18.0004C19.3644 18.0004 19.1799 17.9055 19.0737 17.733L18.0592 16.0862C17.8963 15.8214 17.9787 15.475 18.2431 15.312C18.5082 15.1498 18.8543 15.2311 19.0173 15.4958L20.0317 17.1427C20.1946 17.4075 20.1122 17.7539 19.8478 17.9169C19.7555 17.9733 19.6537 18.0004 19.553 18.0004Z" fill="#27AE60"/>
<path d="M20.733 22.6868C20.076 22.6868 19.4337 22.3565 19.0645 21.7574L17.2701 18.8434C17.1917 18.7167 17.1672 18.5636 17.202 18.4186C17.2364 18.2732 17.3272 18.148 17.4543 18.0696L19.8273 16.6085C20.0914 16.4455 20.4382 16.5275 20.6011 16.7927L22.3952 19.7062C22.6691 20.1508 22.7534 20.6756 22.6325 21.1839C22.512 21.6918 22.2004 22.1229 21.7558 22.3968C21.4368 22.5931 21.0827 22.6868 20.733 22.6868ZM18.5229 18.7328L20.0225 21.1674C20.139 21.356 20.3217 21.4886 20.5378 21.5398C20.7542 21.5904 20.9769 21.5552 21.1655 21.4388C21.5555 21.1985 21.6774 20.6858 21.4372 20.2962L19.9379 17.8613L18.5229 18.7328Z" fill="#27AE60"/>
<path d="M15.7701 17.4107C15.4021 17.4107 15.0311 17.3675 14.6638 17.2803C13.4304 16.987 12.3852 16.2311 11.7203 15.1515C11.0557 14.0723 10.851 12.7986 11.1441 11.5652C11.4375 10.3318 12.1933 9.28666 13.2729 8.62199C15.5009 7.25053 18.4299 7.9456 19.8024 10.1744C21.1746 12.4027 20.4785 15.3317 18.2501 16.7039C17.4924 17.1708 16.6384 17.4107 15.7701 17.4107ZM15.7558 9.04313C15.1084 9.04313 14.4532 9.21635 13.8625 9.57999C13.0393 10.0872 12.4625 10.8844 12.2387 11.8256C12.015 12.7664 12.1712 13.7383 12.6782 14.5619C13.1854 15.3852 13.983 15.962 14.9241 16.1857C15.8653 16.4095 16.8365 16.2535 17.6601 15.7459C19.3601 14.6993 19.8914 12.4643 18.8444 10.764C18.1615 9.6547 16.972 9.04313 15.7558 9.04313Z" fill="#27AE60"/>
<path d="M15.2771 14.3965C15.1332 14.3965 14.9893 14.3416 14.8794 14.2318L13.5046 12.857C13.2849 12.6373 13.2849 12.2813 13.5046 12.0616C13.7244 11.8419 14.0803 11.8419 14.3 12.0616L15.2771 13.0386L17.2213 11.0948C17.441 10.8751 17.797 10.8751 18.0167 11.0948C18.2364 11.3145 18.2364 11.6705 18.0167 11.8902L15.6748 14.2318C15.5649 14.3416 15.421 14.3965 15.2771 14.3965Z" fill="#27AE60"/>
<path d="M14.9131 20.4376H4.33398C4.02326 20.4376 3.77148 20.1856 3.77148 19.8751C3.77148 19.5645 4.02326 19.3126 4.33398 19.3126H14.9131C15.2236 19.3126 15.4756 19.5645 15.4756 19.8751C15.4756 20.1856 15.2236 20.4376 14.9131 20.4376Z" fill="#27AE60"/>
<path d="M10.9064 17.6729H4.33398C4.02326 17.6729 3.77148 17.421 3.77148 17.1104C3.77148 16.7999 4.02326 16.5479 4.33398 16.5479H10.9064C11.2171 16.5479 11.4689 16.7999 11.4689 17.1104C11.4689 17.421 11.2171 17.6729 10.9064 17.6729Z" fill="#27AE60"/>
<path d="M9.23193 14.908H4.33496C4.02423 14.908 3.77246 14.6561 3.77246 14.3455C3.77246 14.035 4.02423 13.783 4.33496 13.783H9.23193C9.54266 13.783 9.79443 14.035 9.79443 14.3455C9.79443 14.6561 9.54266 14.908 9.23193 14.908Z" fill="#27AE60"/>
<path d="M9.23193 12.1436H4.33496C4.02423 12.1436 3.77246 11.8917 3.77246 11.5811C3.77246 11.2706 4.02423 11.0186 4.33496 11.0186H9.23193C9.54266 11.0186 9.79443 11.2706 9.79443 11.5811C9.79443 11.8917 9.54266 12.1436 9.23193 12.1436Z" fill="#27AE60"/>
<path d="M10.2681 9.37897H4.33398C4.02326 9.37897 3.77148 9.12701 3.77148 8.81647C3.77148 8.50592 4.02326 8.25397 4.33398 8.25397H10.2681C10.5788 8.25397 10.8306 8.50592 10.8306 8.81647C10.8306 9.12701 10.5788 9.37897 10.2681 9.37897Z" fill="#27AE60"/>
<path d="M10.6508 6.73029H4.33398C4.02326 6.73029 3.77148 6.47833 3.77148 6.16779V4.12506C3.77148 3.81452 4.02326 3.56256 4.33398 3.56256H10.6508C10.9615 3.56256 11.2133 3.81452 11.2133 4.12506V6.16779C11.2133 6.47833 10.9615 6.73029 10.6508 6.73029ZM4.89648 5.60529H10.0883V4.68756H4.89648V5.60529Z" fill="#27AE60"/>
</svg>
