<svg width="24" height="24" viewBox="0 0 24 24" fill="none" xmlns="http://www.w3.org/2000/svg">
<g clip-path="url(#clip0_3_4021)">
<path d="M1.81874 12.2812C1.82343 12.2859 1.82811 12.2906 1.8328 12.2953L4.41092 14.7328C3.87655 15.5812 3.97499 16.7203 4.71561 17.4609C5.13749 17.8828 5.68593 18.0937 6.23436 18.1031C6.25311 18.6656 6.47811 19.2234 6.90936 19.6547C7.33593 20.0812 7.90311 20.3203 8.5078 20.3297C8.51718 20.9109 8.74218 21.4828 9.1828 21.9281C10.0406 22.8234 11.5875 22.8234 12.45 21.9281L13.8516 20.5265L14.1656 20.8406C15.075 21.75 16.5609 21.75 17.4703 20.8406L17.4891 20.8219C17.9297 20.3812 18.1547 19.8094 18.1734 19.2281C18.7781 19.2328 19.3781 19.0031 19.8375 18.5437L19.8562 18.525C20.2922 18.089 20.5359 17.5125 20.5406 16.8937C21.1312 16.889 21.7172 16.6594 22.1672 16.2094L22.1859 16.1906C23.0953 15.2812 23.0953 13.7953 22.1859 12.8859L21.9469 12.6469L22.0687 12.525C27.914 6.17342 19.2234 -2.50783 12.8766 3.33279L11.6766 4.53279L10.6031 3.48748C8.17499 1.07342 4.23749 1.07342 1.81874 3.49217C-0.6047 5.91561 -0.6047 9.85779 1.81874 12.2812ZM21.1687 15.2156C20.8031 15.5812 20.2125 15.5812 19.8516 15.2156L18.5625 13.9265C18.2016 13.5797 18.2016 12.9562 18.5625 12.6094L18.5812 12.5906C18.9281 12.2297 19.5515 12.2297 19.8984 12.5906L21.1875 13.8797C21.5531 14.2453 21.5531 14.8359 21.1875 15.1969L21.1687 15.2156ZM17.5172 17.55L15.4078 15.4406C15.0469 15.0937 15.0469 14.4703 15.4078 14.1234L15.4266 14.1047C15.7922 13.739 16.3828 13.739 16.7437 14.1047L17.5594 14.9203L18.8484 16.2094C19.2094 16.5562 19.2094 17.1797 18.8484 17.5265L18.8297 17.5453C18.4734 17.9109 17.8828 17.9109 17.5172 17.55ZM15.15 19.8469L14.3156 19.0125C13.9547 18.6656 13.9547 18.0422 14.3156 17.6953L14.3344 17.6765C14.7 17.3109 15.2906 17.3109 15.6516 17.6765L16.4859 18.5109C16.8516 18.8765 16.8516 19.4672 16.4859 19.8281L16.4672 19.8469C16.1062 20.2078 15.5156 20.2078 15.15 19.8469ZM5.70936 15.3469L10.5328 10.5234C10.5562 10.5 10.5984 10.5 10.6219 10.5234L11.4 11.3015C12.3375 12.2812 14.0297 12.2812 14.9672 11.3015C15.9562 10.3547 15.9422 8.63904 14.9391 7.70623L12.6844 5.51717L13.8703 4.33123C15.8578 2.34373 19.0875 2.34373 21.075 4.33123C23.0625 6.31873 23.0625 9.54842 21.075 11.5359L20.9531 11.6578L20.8922 11.5969C20.0203 10.6922 18.4547 10.6922 17.5875 11.5969L17.5687 11.6156C17.2875 11.8969 17.0906 12.2344 16.9828 12.6C16.1344 12.2531 15.1266 12.4219 14.4422 13.1062L14.4234 13.125C13.6172 13.8984 13.5141 15.2484 14.175 16.139C13.875 16.2515 13.5891 16.4297 13.3453 16.6734L13.3265 16.6922C12.6 17.3953 12.4312 18.5812 12.9234 19.4625L11.4562 20.9297C11.1187 21.2812 10.5141 21.2812 10.1766 20.9297C9.8203 20.5734 9.82499 19.9969 10.1812 19.6453L11.4844 18.3422C11.7609 18.0656 11.7609 17.625 11.4844 17.3484C11.2078 17.0719 10.7672 17.0719 10.4906 17.3484L9.1828 18.6562C8.8453 19.0078 8.24061 19.0078 7.90311 18.6562C7.55155 18.3047 7.55155 17.7328 7.90311 17.3765L9.2203 16.0594C9.49686 15.7828 9.49686 15.3422 9.2203 15.0656C8.94374 14.789 8.50311 14.789 8.22655 15.0656C8.22655 15.0656 6.83905 16.4531 6.83436 16.4578C6.52499 16.7672 6.02343 16.7672 5.71405 16.4578C5.39999 16.1578 5.39999 15.6562 5.70936 15.3469ZM2.81249 4.49061C4.68749 2.61561 7.74374 2.61561 9.61874 4.49998L13.9594 8.71873C14.175 8.92967 14.2969 9.21092 14.3016 9.51092C14.3109 10.5094 13.1016 11.0109 12.3937 10.3078L11.6156 9.52967C11.0672 8.95779 10.0875 8.95779 9.53905 9.52967L5.36718 13.7015L2.8078 11.2781C0.937488 9.40779 0.937488 6.36092 2.81249 4.49061Z" fill="#27AE60"/>
</g>
<defs>
<clipPath id="clip0_3_4021">
<rect width="24" height="24" fill="white"/>
</clipPath>
</defs>
</svg>
