<svg width="38" height="38" viewBox="0 0 38 38" fill="none" xmlns="http://www.w3.org/2000/svg">
<path d="M18.9999 28.1042C16.9574 28.1042 15.0257 27.8667 13.5691 27.4234C10.9566 26.6476 10.4182 25.3492 10.4182 24.4151C10.4182 20.4409 14.2657 17.1951 18.9999 17.1951C23.7341 17.1951 27.5816 20.4251 27.5816 24.4151C27.5816 27.8351 21.0107 28.1042 18.9999 28.1042ZM12.7932 24.3992C13.0307 24.8742 15.2791 25.7292 18.9999 25.7292C22.7207 25.7292 25.0007 24.8742 25.2066 24.3834C25.2066 21.7392 22.4199 19.5701 18.9999 19.5701C15.5799 19.5701 12.8091 21.7234 12.7932 24.3834V24.3992Z" fill="white"/>
<path d="M18.9524 19.1425C15.9757 19.1425 13.5374 16.72 13.5374 13.7275C13.5374 10.735 15.9599 8.3125 18.9524 8.3125C21.9449 8.3125 24.3674 10.735 24.3674 13.7275C24.3674 16.72 21.9449 19.1425 18.9524 19.1425ZM18.9524 10.6875C18.1459 10.6877 17.3726 11.0083 16.8025 11.5787C16.2323 12.1491 15.9122 12.9226 15.9124 13.7291C15.9126 14.5356 16.2332 15.3089 16.8036 15.879C17.374 16.4491 18.1475 16.7693 18.954 16.7691C19.7604 16.7689 20.5338 16.4483 21.1039 15.8779C21.674 15.3075 21.9942 14.534 21.994 13.7275C21.9938 12.921 21.6732 12.1477 21.1028 11.5776C20.5324 11.0075 19.7589 10.6873 18.9524 10.6875Z" fill="white"/>
<path d="M30.0833 31.4925C29.7825 31.4925 29.4658 31.3659 29.2283 31.1284C28.7692 30.6534 28.7692 29.9092 29.2442 29.45C30.6404 28.0894 31.7484 26.4614 32.5019 24.6633C33.2554 22.8652 33.6391 20.9338 33.63 18.9842C33.63 10.9092 27.0592 4.33838 18.9842 4.33838C17.48 4.33838 16.0075 4.56005 14.5983 5.00338C13.965 5.19338 13.3 4.84505 13.11 4.22755C12.92 3.59421 13.2683 2.92921 13.8858 2.73921C15.5325 2.21671 17.2425 1.96338 19 1.96338C28.3892 1.96338 36.0208 9.59505 36.0208 18.9842C36.0208 23.5917 34.2 27.9142 30.9225 31.1442C30.685 31.3659 30.3842 31.4767 30.0992 31.4767L30.0833 31.4925ZM19 36.0209C9.61082 36.0209 1.97916 28.3892 1.97916 19C1.97916 14.5192 3.70499 10.2917 6.83999 7.07755C7.29916 6.60254 8.04332 6.60255 8.51832 7.06171C8.99332 7.52088 8.99332 8.28088 8.53416 8.74004C5.84081 11.474 4.33818 15.1623 4.35416 19C4.35416 27.075 10.925 33.6459 19 33.6459C20.5042 33.6459 21.9767 33.4242 23.3858 32.9809C24.0192 32.7909 24.6842 33.1392 24.8742 33.7567C25.0642 34.39 24.7158 35.055 24.0983 35.245C22.4517 35.7675 20.7417 36.0209 18.9842 36.0209H19Z" fill="white"/>
<path d="M31.6666 32.8541H28.4999C27.8508 32.8541 27.3124 32.3158 27.3124 31.6666V28.4999C27.3124 27.8508 27.8508 27.3124 28.4999 27.3124C29.1491 27.3124 29.6874 27.8508 29.6874 28.4999V30.4791H31.6666C32.3158 30.4791 32.8541 31.0174 32.8541 31.6666C32.8541 32.3158 32.3158 32.8541 31.6666 32.8541ZM9.49992 10.6874C8.85075 10.6874 8.31242 10.1491 8.31242 9.49992V7.52075H6.33325C5.68409 7.52075 5.14575 6.98242 5.14575 6.33325C5.14575 5.68409 5.68409 5.14575 6.33325 5.14575H9.49992C10.1491 5.14575 10.6874 5.68409 10.6874 6.33325V9.49992C10.6874 10.1491 10.1491 10.6874 9.49992 10.6874Z" fill="white"/>
</svg>
