<svg width="60" height="60" viewBox="0 0 60 60" fill="none" xmlns="http://www.w3.org/2000/svg">
<rect width="60" height="60" rx="6.93333" fill="white"/>
<path d="M16.6664 29.9997C16.6664 23.7144 16.6664 20.5717 18.6184 18.6184C20.573 16.6664 23.7144 16.6664 29.9997 16.6664C36.285 16.6664 39.4277 16.6664 41.3797 18.6184C43.333 20.573 43.333 23.7144 43.333 29.9997C43.333 36.285 43.333 39.4277 41.3797 41.3797C39.429 43.333 36.285 43.333 29.9997 43.333C23.7144 43.333 20.5717 43.333 18.6184 41.3797C16.6664 39.429 16.6664 36.285 16.6664 29.9997Z" stroke="#0B3A78" stroke-width="2.28571"/>
<path d="M21.9998 35.0665L23.5238 36.6665L27.3332 32.6665M21.9998 25.7331L23.5238 27.3331L27.3332 23.3331" stroke="#0B3A78" stroke-width="2.28571" stroke-linecap="round" stroke-linejoin="round"/>
<path d="M31.3332 26H37.9999M31.3332 35.3333H37.9999" stroke="#0B3A78" stroke-width="2.28571" stroke-linecap="round"/>
</svg>
