<svg width="185" height="38" viewBox="0 0 185 38" fill="none" xmlns="http://www.w3.org/2000/svg">
<path d="M50.153 28.1368V12.1527H44.9502V9.3652H58.3579V12.1527H53.1551V28.1368H50.153Z" fill="white"/>
<path d="M68.8459 14.3283V16.9547C65.6004 16.9547 62.3298 18.0819 62.3298 21.7818V28.1368H59.5137V14.729H62.3298V15.3445C62.3298 16.257 61.8468 17.3304 61.4997 18.1606L62.0078 18.3753C62.3549 17.5165 62.7056 16.3643 63.4033 15.7739C64.7165 14.568 66.0834 14.3283 68.8459 14.3283Z" fill="white"/>
<path d="M75.3368 28.5411C72.7891 28.5411 70.3237 26.9595 70.3237 23.9288V14.7326H73.1398V22.0788C73.1398 24.8663 74.3743 25.9934 76.1706 25.9934C78.1279 25.9934 80.0852 24.8412 80.0852 22.0788V14.729H82.9013V28.1368H80.0852L80.1138 27.5213C80.1138 26.8522 80.5432 26.0471 80.8116 25.428L80.3035 25.2134C80.0601 25.8574 79.8741 26.7699 79.366 27.2243C78.2066 28.3801 77.1868 28.5411 75.3368 28.5411Z" fill="white"/>
<path d="M91.3746 28.5662C87.2703 28.5662 84.6439 26.2081 84.6439 23.8465H87.485C87.485 24.7052 89.1489 25.9111 91.6144 25.9111C93.679 25.9111 94.6165 25.242 94.6165 24.2222C94.6165 21.1127 84.7763 23.2847 84.7763 18.2429C84.7763 16.1782 86.8696 14.3283 90.8379 14.3283C94.9672 14.3283 97.1678 16.2856 97.1678 18.3502H94.3517C94.3517 17.3841 92.9025 16.715 90.7055 16.715C89.0165 16.715 87.6496 17.2517 87.6496 18.2429C87.6496 20.5223 97.5185 18.5363 97.5185 24.0075C97.5149 26.6626 95.4789 28.5662 91.3746 28.5662Z" fill="white"/>
<path d="M101.218 17.2767H98.5383V14.7577H101.218V9.98425H104.035V14.7577H107.52V17.2767H104.035V24.0612C104.035 25.1883 104.543 25.4817 105.806 25.4817H107.387V28.1368H104.518C102.21 28.1368 101.218 26.1509 101.218 24.0612V17.2767Z" fill="white"/>
<path d="M117.628 22.7479C117.95 23.5781 117.868 24.7052 117.868 25.5891H118.405C118.405 24.7052 118.351 23.5781 118.645 22.7479L123.658 9.3652H126.875L119.958 28.1368H116.312L109.391 9.3652H112.608L117.628 22.7479Z" fill="white"/>
<path d="M125.705 21.3524C125.705 17.3555 128.76 14.3283 133.104 14.3283C137.556 14.3283 140.318 17.5738 140.29 21.2451C140.29 21.5134 140.29 22.1575 140.29 22.3722H128.971C128.971 23.9824 130.421 26.1008 133.448 26.1008C135.38 26.1008 136.557 25.1346 136.854 24.3045H139.993C139.617 25.7 137.713 28.5698 133.691 28.5698C128.517 28.5662 125.705 25.3493 125.705 21.3524ZM137.073 20.3076C137.073 18.2966 135.57 16.6613 133.158 16.6613C130.693 16.6613 129 18.4862 129 20.3076H137.073Z" fill="white"/>
<path d="M151.636 14.3283V16.9547C148.391 16.9547 145.12 18.0819 145.12 21.7818V28.1368H142.304V14.729H145.12V15.3445C145.12 16.257 144.637 17.3304 144.29 18.1606L144.798 18.3753C145.145 17.5165 145.496 16.3643 146.194 15.7739C147.507 14.568 148.874 14.3283 151.636 14.3283Z" fill="white"/>
<path d="M153.164 9.3652H156.249V12.3137H153.164V9.3652ZM153.325 14.729H156.141V28.1368H153.325V14.729Z" fill="white"/>
<path d="M164.565 9.3652H167.459V11.7233H165.527C164.268 11.7233 163.756 12.421 163.756 13.5732V14.7254H167.109V17.0585H163.756V28.0545H160.94V17.0585H158.285V14.7254H160.94V13.5732C161.022 11.0005 162.686 9.3652 164.565 9.3652Z" fill="white"/>
<path d="M176.498 23.1487C176.874 23.9788 176.874 25.1346 176.874 26.0435H177.41C177.41 25.1311 177.385 23.9788 177.786 23.1487L181.647 14.729H185L178.67 28.1117C178.269 28.9419 177.919 29.6146 177.518 30.4734C176.366 33.0748 175.238 34.846 172.931 34.846H169.714V32.0836H171.725C173.36 32.0836 173.872 31.1998 174.648 29.6432L175.561 27.8183L169.284 14.7326H172.637L176.498 23.1487Z" fill="white"/>
<path d="M11.2393 19.6134V12.8612L18.7322 8.53506L20.5643 9.59065L35.2889 18.089C36.4339 14.9759 37.1782 11.6982 37.468 8.3311C33.8182 7.19321 30.7731 4.68485 28.9374 1.40358C22.264 -0.467858 15.2005 -0.467858 8.53059 1.40358C6.69494 4.68127 3.64983 7.19321 0 8.3311C0.153865 10.1167 0.436547 11.8807 0.837313 13.6055L11.2393 19.6134Z" fill="white"/>
<path d="M26.2287 14.7648V21.517L18.7358 25.8431L17.2401 24.9808L1.43848 15.8562C2.28295 18.6866 3.44946 21.3989 4.92013 23.9395C8.17993 29.586 12.8961 34.388 18.7394 37.7588C24.5827 34.388 29.2989 29.586 32.5587 23.9395C33.3566 22.5547 34.0651 21.1198 34.6842 19.6456L26.2287 14.7648Z" fill="white"/>
<path d="M17.351 20.8336L14.3166 17.7598L15.4223 16.6685L17.4476 18.7224L22.5288 14.4177L23.5307 15.6021L17.351 20.8336Z" fill="white"/>
</svg>
