<svg width="38" height="38" viewBox="0 0 38 38" fill="none" xmlns="http://www.w3.org/2000/svg">
<path d="M19 11.875C18.3469 11.875 17.8125 12.4094 17.8125 13.0625V13.2763C16.435 13.7631 15.4375 15.0694 15.4375 16.625C15.4375 18.5844 17.0406 20.1875 19 20.1875C19.6531 20.1875 20.1875 20.7219 20.1875 21.375C20.1875 22.0281 19.6531 22.5625 19 22.5625C18.7531 22.5607 18.5129 22.4819 18.3128 22.3372C18.1127 22.1924 17.9628 21.9889 17.8838 21.755C17.6819 21.1375 17.005 20.7931 16.3875 20.995C15.77 21.1969 15.4256 21.8738 15.6275 22.4913C15.9837 23.56 16.8031 24.3675 17.8125 24.7237V24.9375C17.8125 25.5906 18.3469 26.125 19 26.125C19.6531 26.125 20.1875 25.5906 20.1875 24.9375V24.7237C21.565 24.2369 22.5625 22.9306 22.5625 21.375C22.5625 19.4156 20.9594 17.8125 19 17.8125C18.3469 17.8125 17.8125 17.2781 17.8125 16.625C17.8125 15.9719 18.3469 15.4375 19 15.4375C19.2469 15.4393 19.4871 15.5181 19.6872 15.6628C19.8873 15.8076 20.0372 16.0111 20.1163 16.245C20.3181 16.8625 20.995 17.2069 21.6125 17.005C22.23 16.8031 22.5744 16.1263 22.3725 15.5088C22.0163 14.44 21.1969 13.6325 20.1875 13.2763V13.0625C20.1875 12.4094 19.6531 11.875 19 11.875Z" fill="#0B3A78"/>
<path d="M29.0818 7.30306L28.9156 7.16056C28.7612 7.02993 28.6187 6.91118 28.5 6.82806C27.8943 6.35306 27.2293 5.91368 26.4812 5.49806C25.84 5.15368 25.2462 4.86868 24.6762 4.64306C18.5843 2.22056 11.6137 3.93056 7.31497 8.91806L7.17247 9.08431C7.04184 9.23868 6.91122 9.39306 6.83997 9.49993C6.74497 9.61868 6.66184 9.74931 6.56684 9.87993L6.06809 8.15806C5.88997 7.52868 5.22497 7.16056 4.59559 7.33868C3.96622 7.51681 3.59809 8.18181 3.77622 8.81118L5.08247 13.3712C5.15195 13.6193 5.30132 13.8375 5.50742 13.9921C5.71352 14.1467 5.96485 14.2289 6.22247 14.2262C6.32934 14.2262 6.44809 14.2143 6.55497 14.1787L11.1268 12.8724C11.2773 12.8295 11.4179 12.7574 11.5405 12.6602C11.6631 12.563 11.7654 12.4426 11.8415 12.3059C11.9176 12.1691 11.966 12.0188 11.984 11.8633C12.0019 11.7079 11.9891 11.5504 11.9462 11.3999C11.9033 11.2494 11.8312 11.1089 11.734 10.9863C11.6368 10.8636 11.5164 10.7614 11.3797 10.6853C11.2429 10.6092 11.0925 10.5608 10.9371 10.5428C10.7817 10.5248 10.6242 10.5377 10.4737 10.5806L8.57372 11.1268C8.63309 11.0556 8.68059 10.9724 8.73997 10.9012C8.81122 10.7943 8.90622 10.6993 8.98934 10.6043L9.13184 10.4262C12.7537 6.23431 18.6556 4.78556 23.7975 6.83993C24.9729 7.30777 26.0763 7.93944 27.075 8.71618C27.1818 8.78743 27.2768 8.87056 27.3718 8.95368L27.55 9.09618C30.4118 11.5781 32.0506 15.1762 32.0506 18.9643C32.0506 19.6174 32.585 20.1518 33.2381 20.1518C33.8912 20.1518 34.4256 19.6174 34.4256 18.9643C34.4256 14.4756 32.49 10.2243 29.07 7.26743L29.0818 7.30306ZM8.91809 30.6968L9.08434 30.8393C9.23872 30.9699 9.39309 31.1006 9.49997 31.1718C10.1056 31.6587 10.7706 32.0862 11.5187 32.5018C12.16 32.8462 12.7537 33.1312 13.3237 33.3568C15.1643 34.0931 17.0881 34.4374 19 34.4374C23.3937 34.4374 27.6925 32.5493 30.6968 29.0818L30.8393 28.9156C30.97 28.7612 31.0887 28.6187 31.1718 28.4999C31.2668 28.3812 31.35 28.2506 31.445 28.1199L31.9318 29.8418C31.9745 29.9921 32.0467 30.1324 32.1441 30.2546C32.2415 30.3768 32.3622 30.4784 32.4992 30.5536C32.6362 30.6287 32.7868 30.6759 32.9421 30.6923C33.0975 30.7087 33.2546 30.6941 33.4043 30.6493C34.0337 30.4712 34.4018 29.8062 34.2237 29.1768L32.9175 24.6049C32.8291 24.3022 32.625 24.0464 32.3494 23.8931C32.0738 23.7397 31.7488 23.7011 31.445 23.7856L26.8731 25.0918C26.2437 25.2699 25.8756 25.9349 26.0537 26.5643C26.2318 27.1937 26.8968 27.5618 27.5262 27.3837L29.4262 26.8374C29.3668 26.9087 29.3193 26.9918 29.26 27.0631C29.1887 27.1699 29.1056 27.2649 29.0225 27.3599L28.8681 27.5381C27.0989 29.585 24.7361 31.0302 22.1079 31.6729C19.4797 32.3156 16.7167 32.1238 14.2025 31.1243C13.7275 30.9343 13.2168 30.6968 12.6706 30.3881C12.0412 30.0437 11.4831 29.6756 10.925 29.2362C10.8181 29.1649 10.7231 29.0818 10.6281 28.9868L10.45 28.8443C9.03535 27.619 7.90118 26.1034 7.12457 24.4006C6.34797 22.6978 5.94714 20.8477 5.94934 18.9762C5.94934 18.3231 5.41497 17.7887 4.76184 17.7887C4.10872 17.7887 3.57434 18.3231 3.57434 18.9762C3.57434 23.4649 5.52184 27.7162 8.92997 30.6731L8.91809 30.6968Z" fill="#0B3A78"/>
</svg>
