<svg width="60" height="60" viewBox="0 0 60 60" fill="none" xmlns="http://www.w3.org/2000/svg">
<rect width="60" height="60" rx="6.93333" fill="white"/>
<path d="M32.3034 18.5923L34.6498 23.3239C34.9698 23.9826 35.823 24.6143 36.543 24.7353L40.7958 25.4477C43.5156 25.9048 44.1556 27.8942 42.1957 29.8567L38.8894 33.1903C38.3294 33.7549 38.0229 34.8437 38.1961 35.6234L39.1428 39.7501C39.8893 43.0165 38.1694 44.2801 35.3032 42.5729L31.3169 40.1937C30.597 39.7635 29.4105 39.7635 28.6772 40.1937L24.691 42.5729C21.838 44.2801 20.1048 43.003 20.8514 39.7501L21.798 35.6234C21.9713 34.8437 21.6647 33.7549 21.1047 33.1903L17.7984 29.8567C15.852 27.8942 16.4786 25.9048 19.1983 25.4477L23.4511 24.7353C24.1577 24.6143 25.0109 23.9826 25.3309 23.3239L27.6773 18.5923C28.9572 16.0249 31.0369 16.0249 32.3034 18.5923Z" stroke="#0B3A78" stroke-width="2" stroke-linecap="round" stroke-linejoin="round"/>
</svg>
