<svg width="1920" height="134" viewBox="0 0 1920 134" fill="none" xmlns="http://www.w3.org/2000/svg">
<rect width="1920" height="134" fill="white"/>
<path fill-rule="evenodd" clip-rule="evenodd" d="M121.722 60.4325C120.325 59.4985 118.681 59 117 59V50.5C120.362 50.5 123.649 51.497 126.445 53.365C129.24 55.233 131.419 57.888 132.706 60.9944C133.993 64.1007 134.329 67.5189 133.673 70.8165C133.017 74.1142 131.398 77.1433 129.021 79.5208C126.643 81.8983 123.614 83.5174 120.317 84.1734C117.019 84.8293 113.601 84.4926 110.494 83.206C107.388 81.9192 104.733 79.7403 102.865 76.9447C100.997 74.149 100 70.8623 100 67.5H108.5C108.5 69.1811 108.999 70.8245 109.933 72.2223C110.866 73.6202 112.194 74.7096 113.747 75.353C115.3 75.9963 117.009 76.1646 118.658 75.8366C120.307 75.5087 121.822 74.6992 123.01 73.5104C124.199 72.3216 125.009 70.8071 125.337 69.1583C125.665 67.5094 125.496 65.8003 124.853 64.2472C124.21 62.694 123.12 61.3665 121.722 60.4325Z" fill="#9EA2AE"/>
<path fill-rule="evenodd" clip-rule="evenodd" d="M108.5 50.5C108.5 51.6162 108.28 52.7215 107.853 53.7528C107.426 54.7841 106.8 55.7211 106.01 56.5104C105.221 57.2997 104.284 57.9258 103.253 58.353C102.222 58.7801 101.116 59 100 59L100 67.5C102.232 67.5 104.443 67.0603 106.506 66.206C108.568 65.3516 110.442 64.0994 112.021 62.5208C113.599 60.9423 114.852 59.0682 115.706 57.0056C116.56 54.9431 117 52.7325 117 50.5L108.5 50.5Z" fill="#9EA2AE"/>
<path d="M218.152 57.1776C218.659 57.685 219.293 57.9387 220.054 57.9387C220.815 57.9387 221.439 57.685 221.925 57.1776C222.412 56.6491 222.655 56.0148 222.655 55.2748C222.655 54.5137 222.412 53.8795 221.925 53.3721C221.439 52.8647 220.815 52.611 220.054 52.611C219.293 52.611 218.659 52.8647 218.152 53.3721C217.665 53.8795 217.422 54.5137 217.422 55.2748C217.422 56.0148 217.665 56.6491 218.152 57.1776Z" fill="#9EA2AE"/>
<path d="M222.461 60.0635H217.609V75.4758H222.461V60.0635Z" fill="#9EA2AE"/>
<path d="M148 75.4758V53.0867H152.979V71.0995H162.905V75.4758H148Z" fill="#9EA2AE"/>
<path fill-rule="evenodd" clip-rule="evenodd" d="M171.873 75.8246C170.287 75.8246 168.85 75.4758 167.56 74.7781C166.292 74.0593 165.287 73.0868 164.547 71.8605C163.807 70.6343 163.438 69.2601 163.438 67.7379C163.438 66.2157 163.807 64.8521 164.547 63.647C165.287 62.4419 166.292 61.4905 167.56 60.7929C168.829 60.074 170.266 59.7146 171.873 59.7146C173.48 59.7146 174.917 60.0635 176.186 60.7611C177.454 61.4588 178.459 62.4208 179.199 63.647C179.939 64.8521 180.309 66.2157 180.309 67.7379C180.309 69.2601 179.939 70.6343 179.199 71.8605C178.459 73.0868 177.454 74.0593 176.186 74.7781C174.917 75.4758 173.48 75.8246 171.873 75.8246ZM171.873 71.4166C172.571 71.4166 173.184 71.2686 173.712 70.9726C174.241 70.6555 174.643 70.2221 174.917 69.6724C175.213 69.1016 175.361 68.4567 175.361 67.7379C175.361 67.0191 175.213 66.3954 174.917 65.8669C174.621 65.3172 174.209 64.8944 173.681 64.5984C173.173 64.2812 172.571 64.1227 171.873 64.1227C171.196 64.1227 170.594 64.2812 170.065 64.5984C169.537 64.8944 169.125 65.3172 168.829 65.8669C168.533 66.4166 168.385 67.0508 168.385 67.7696C168.385 68.4673 168.533 69.1016 168.829 69.6724C169.125 70.2221 169.537 70.6555 170.065 70.9726C170.594 71.2686 171.196 71.4166 171.873 71.4166Z" fill="#9EA2AE"/>
<path fill-rule="evenodd" clip-rule="evenodd" d="M184.146 81.5011C185.436 82.093 186.927 82.389 188.618 82.389C190.267 82.389 191.736 82.0613 193.026 81.4059C194.316 80.7505 195.33 79.8415 196.07 78.6787C196.81 77.5159 197.181 76.1417 197.181 74.556V60.0634H192.423V61.0989C192.07 60.8011 191.668 60.5511 191.218 60.3488C190.394 59.9471 189.453 59.7462 188.396 59.7462C186.979 59.7462 185.721 60.0845 184.622 60.761C183.523 61.4164 182.656 62.3255 182.022 63.4883C181.387 64.63 181.07 65.9196 181.07 67.3573C181.07 68.7738 181.387 70.0634 182.022 71.2262C182.656 72.389 183.523 73.3087 184.622 73.9852C185.721 74.6617 186.979 75 188.396 75C189.432 75 190.373 74.7992 191.218 74.3975C191.628 74.2029 191.998 73.9736 192.328 73.7095V74.6829C192.328 75.7611 191.979 76.5962 191.282 77.1882C190.605 77.7802 189.664 78.0761 188.459 78.0761C187.487 78.0761 186.652 77.907 185.954 77.5687C185.278 77.2305 184.664 76.7336 184.115 76.0782L181.134 79.0592C181.874 80.1163 182.878 80.9303 184.146 81.5011ZM191.06 70.2431C190.573 70.5391 189.992 70.6871 189.316 70.6871C188.639 70.6871 188.047 70.5391 187.54 70.2431C187.053 69.9471 186.673 69.5454 186.398 69.038C186.123 68.5095 185.986 67.9492 185.986 67.3573C185.986 66.723 186.123 66.1522 186.398 65.6448C186.673 65.1374 187.064 64.7357 187.571 64.4397C188.079 64.1437 188.66 63.9957 189.316 63.9957C189.992 63.9957 190.573 64.1437 191.06 64.4397C191.567 64.7357 191.948 65.1374 192.201 65.6448C192.476 66.1522 192.614 66.723 192.614 67.3573C192.614 67.9915 192.476 68.5623 192.201 69.0697C191.948 69.556 191.567 69.9471 191.06 70.2431Z" fill="#9EA2AE"/>
<path fill-rule="evenodd" clip-rule="evenodd" d="M207.397 75.8246C205.811 75.8246 204.373 75.4758 203.084 74.7781C201.815 74.0593 200.811 73.0868 200.071 71.8605C199.331 70.6343 198.961 69.2601 198.961 67.7379C198.961 66.2157 199.331 64.8521 200.071 63.647C200.811 62.4419 201.815 61.4905 203.084 60.7929C204.352 60.074 205.79 59.7146 207.397 59.7146C209.003 59.7146 210.441 60.0635 211.709 60.7611C212.978 61.4588 213.982 62.4208 214.722 63.647C215.462 64.8521 215.832 66.2157 215.832 67.7379C215.832 69.2601 215.462 70.6343 214.722 71.8605C213.982 73.0868 212.978 74.0593 211.709 74.7781C210.441 75.4758 209.003 75.8246 207.397 75.8246ZM207.397 71.4166C208.094 71.4166 208.707 71.2686 209.236 70.9726C209.764 70.6555 210.166 70.2221 210.441 69.6724C210.737 69.1016 210.885 68.4567 210.885 67.7379C210.885 67.0191 210.737 66.3954 210.441 65.8669C210.145 65.3172 209.733 64.8944 209.204 64.5984C208.697 64.2812 208.094 64.1227 207.397 64.1227C206.72 64.1227 206.117 64.2812 205.589 64.5984C205.06 64.8944 204.648 65.3172 204.352 65.8669C204.056 66.4166 203.908 67.0508 203.908 67.7696C203.908 68.4673 204.056 69.1016 204.352 69.6724C204.648 70.2221 205.06 70.6555 205.589 70.9726C206.117 71.2686 206.72 71.4166 207.397 71.4166Z" fill="#9EA2AE"/>
<path fill-rule="evenodd" clip-rule="evenodd" d="M234.121 75.7928C233.086 75.7928 232.134 75.592 231.267 75.1903C230.811 74.9789 230.399 74.7265 230.031 74.4331V81.9768H225.242V60.0634H230.094V61.1271C230.446 60.8392 230.837 60.5903 231.267 60.3805C232.134 59.9576 233.086 59.7462 234.121 59.7462C235.58 59.7462 236.87 60.0951 237.99 60.7928C239.132 61.4904 240.02 62.4418 240.654 63.6469C241.31 64.852 241.637 66.2262 241.637 67.7695C241.637 69.3129 241.31 70.6871 240.654 71.8922C240.02 73.0973 239.132 74.0486 237.99 74.7463C236.87 75.444 235.58 75.7928 234.121 75.7928ZM233.234 71.4165C233.931 71.4165 234.534 71.2579 235.041 70.9408C235.57 70.6237 235.982 70.1902 236.278 69.6406C236.574 69.0909 236.722 68.4672 236.722 67.7695C236.722 67.0507 236.574 66.4165 236.278 65.8668C235.982 65.3171 235.57 64.8943 235.041 64.5983C234.534 64.2811 233.942 64.1226 233.265 64.1226C232.589 64.1226 231.986 64.2811 231.458 64.5983C230.95 64.8943 230.549 65.3171 230.253 65.8668C229.957 66.4165 229.809 67.0507 229.809 67.7695C229.809 68.4672 229.946 69.0909 230.221 69.6406C230.517 70.1902 230.929 70.6237 231.458 70.9408C231.986 71.2579 232.578 71.4165 233.234 71.4165Z" fill="#9EA2AE"/>
<path d="M246.392 75.5075C247.28 75.7401 248.178 75.8563 249.087 75.8563C251.011 75.8563 252.533 75.4124 253.654 74.5244C254.795 73.6365 255.366 72.442 255.366 70.9409C255.366 69.9684 255.187 69.1861 254.827 68.5942C254.468 67.9811 254.003 67.4948 253.432 67.1354C252.861 66.776 252.258 66.4905 251.624 66.2791C250.99 66.0677 250.387 65.888 249.817 65.74C249.246 65.592 248.781 65.4229 248.421 65.2326C248.062 65.0423 247.882 64.7886 247.882 64.4715C247.882 64.1755 248.02 63.9535 248.294 63.8055C248.569 63.6364 248.981 63.5519 249.531 63.5519C250.102 63.5519 250.683 63.6681 251.275 63.9007C251.888 64.1332 252.438 64.535 252.924 65.1058L255.683 62.3151C254.986 61.4271 254.077 60.7611 252.956 60.3172C251.857 59.8521 250.652 59.6195 249.341 59.6195C248.094 59.6195 247.005 59.8309 246.075 60.2537C245.144 60.6766 244.425 61.258 243.918 61.9979C243.411 62.7167 243.157 63.573 243.157 64.5667C243.157 65.4969 243.337 66.2686 243.696 66.8817C244.055 67.4736 244.521 67.9388 245.091 68.277C245.662 68.6153 246.265 68.8796 246.899 69.0698C247.533 69.2601 248.136 69.4398 248.707 69.609C249.277 69.757 249.743 69.9367 250.102 70.1481C250.483 70.3384 250.673 70.6238 250.673 71.0043C250.673 71.3003 250.514 71.5328 250.197 71.702C249.901 71.8711 249.468 71.9557 248.897 71.9557C248.072 71.9557 247.311 71.8077 246.614 71.5117C245.916 71.1946 245.313 70.7612 244.806 70.2115L242.047 73.0022C242.576 73.573 243.21 74.0805 243.95 74.5244C244.711 74.9472 245.525 75.2749 246.392 75.5075Z" fill="#9EA2AE"/>
<path d="M264.214 75.8246C262.798 75.8246 261.54 75.5392 260.441 74.9684C259.362 74.3764 258.517 73.573 257.904 72.5582C257.29 71.5223 256.984 70.3384 256.984 69.0064V60.0635H261.836V68.943C261.836 69.4715 261.92 69.9261 262.09 70.3066C262.28 70.6872 262.555 70.9832 262.914 71.1946C263.274 71.406 263.707 71.5117 264.214 71.5117C264.933 71.5117 265.504 71.2897 265.927 70.8457C266.35 70.3806 266.561 69.7464 266.561 68.943V60.0635H271.413V68.9747C271.413 70.3278 271.107 71.5223 270.493 72.5582C269.88 73.573 269.035 74.3764 267.956 74.9684C266.878 75.5392 265.631 75.8246 264.214 75.8246Z" fill="#9EA2AE"/>
<path d="M278.672 60.0634H273.82V75.4757H278.672V66.4693C278.672 65.9408 278.778 65.4968 278.989 65.1374C279.222 64.778 279.529 64.5031 279.909 64.3129C280.29 64.1014 280.723 63.9957 281.209 63.9957C281.907 63.9957 282.488 64.2177 282.953 64.6617C283.44 65.0845 283.683 65.6871 283.683 66.4693V75.4757H288.535V66.4693C288.535 65.9408 288.641 65.4968 288.852 65.1374C289.085 64.778 289.391 64.5031 289.772 64.3129C290.152 64.1014 290.586 63.9957 291.072 63.9957C291.77 63.9957 292.351 64.2177 292.816 64.6617C293.302 65.0845 293.545 65.6871 293.545 66.4693V75.4757H298.398V65.9302C298.398 64.6406 298.123 63.5412 297.573 62.6321C297.044 61.7018 296.315 60.9936 295.385 60.5074C294.476 59.9999 293.429 59.7462 292.245 59.7462C291.04 59.7462 289.951 60.0105 288.979 60.5391C288.347 60.8758 287.795 61.3104 287.322 61.8428C286.881 61.2859 286.345 60.8302 285.712 60.4756C284.867 59.9894 283.905 59.7462 282.827 59.7462C281.685 59.7462 280.66 59.9894 279.751 60.4756C279.355 60.6779 278.996 60.9202 278.672 61.2025V60.0634Z" fill="#9EA2AE"/>
<path d="M503.001 81.1001C508.634 81.1001 513.201 76.5334 513.201 70.9001C513.201 65.2668 508.634 60.7001 503.001 60.7001V67.84C504.691 67.84 506.061 69.2101 506.061 70.9001C506.061 72.5901 504.691 73.9601 503.001 73.9601V81.1001Z" fill="#9EA2AE"/>
<path d="M537.001 64.1001C535.258 63.5479 533.401 63.25 531.476 63.25C521.383 63.25 513.201 71.4321 513.201 81.525C513.201 82.5381 513.283 83.5319 513.442 84.5H524.796C524.391 83.5913 524.166 82.5845 524.166 81.525C524.166 77.4878 527.438 74.215 531.476 74.215C533.682 74.215 535.66 75.1927 537.001 76.7384V64.1001Z" fill="#9EA2AE"/>
<path d="M504.792 50.5C505.637 58.1499 512.123 64.1 519.998 64.1C527.874 64.1 534.359 58.1499 535.205 50.5H524.263C523.588 52.1934 521.933 53.39 519.998 53.39C518.064 53.39 516.409 52.1934 515.733 50.5H504.792Z" fill="#9EA2AE"/>
<path d="M541.563 54.7897H545.558V76.5787H552.131V80.2103H541.563V54.7897Z" fill="#9EA2AE"/>
<path d="M559.682 80.5734C557.721 80.5734 556.22 80.0166 555.179 78.9029C554.138 77.7892 553.618 76.2156 553.618 74.1819V60.818C553.618 58.7843 554.138 57.2107 555.179 56.097C556.22 54.9833 557.721 54.4265 559.682 54.4265C561.643 54.4265 563.144 54.9833 564.185 56.097C565.226 57.2107 565.747 58.7843 565.747 60.818V74.1819C565.747 76.2156 565.226 77.7892 564.185 78.9029C563.144 80.0166 561.643 80.5734 559.682 80.5734ZM559.682 76.9419C561.062 76.9419 561.752 76.1066 561.752 74.4361V60.5638C561.752 58.8933 561.062 58.058 559.682 58.058C558.302 58.058 557.612 58.8933 557.612 60.5638V74.4361C557.612 76.1066 558.302 76.9419 559.682 76.9419Z" fill="#9EA2AE"/>
<path d="M574.113 80.5734C572.176 80.5734 570.699 80.0287 569.682 78.9392C568.665 77.8256 568.157 76.2398 568.157 74.1819V60.818C568.157 58.7601 568.665 57.1865 569.682 56.097C570.699 54.9833 572.176 54.4265 574.113 54.4265C576.049 54.4265 577.526 54.9833 578.543 56.097C579.56 57.1865 580.068 58.7601 580.068 60.818V62.9969H576.291V60.5638C576.291 58.8933 575.601 58.058 574.221 58.058C572.842 58.058 572.152 58.8933 572.152 60.5638V74.4725C572.152 76.1188 572.842 76.9419 574.221 76.9419C575.601 76.9419 576.291 76.1188 576.291 74.4725V69.4973H574.294V65.8658H580.068V74.1819C580.068 76.2398 579.56 77.8256 578.543 78.9392C577.526 80.0287 576.049 80.5734 574.113 80.5734Z" fill="#9EA2AE"/>
<path d="M588.409 80.5734C586.448 80.5734 584.947 80.0166 583.906 78.9029C582.865 77.7892 582.344 76.2156 582.344 74.1819V60.818C582.344 58.7843 582.865 57.2107 583.906 56.097C584.947 54.9833 586.448 54.4265 588.409 54.4265C590.37 54.4265 591.871 54.9833 592.912 56.097C593.953 57.2107 594.474 58.7843 594.474 60.818V74.1819C594.474 76.2156 593.953 77.7892 592.912 78.9029C591.871 80.0166 590.37 80.5734 588.409 80.5734ZM588.409 76.9419C589.789 76.9419 590.479 76.1066 590.479 74.4361V60.5638C590.479 58.8933 589.789 58.058 588.409 58.058C587.029 58.058 586.339 58.8933 586.339 60.5638V74.4361C586.339 76.1066 587.029 76.9419 588.409 76.9419Z" fill="#9EA2AE"/>
<path d="M597.18 54.7897H601.175V80.2103H597.18V54.7897Z" fill="#9EA2AE"/>
<path d="M604.165 54.7897H610.048C612.033 54.7897 613.522 55.3223 614.515 56.3875C615.508 57.4528 616.004 59.0143 616.004 61.0722V63.5779C616.004 65.6358 615.508 67.1973 614.515 68.2626C613.522 69.3278 612.033 69.8604 610.048 69.8604H608.16V80.2103H604.165V54.7897ZM610.048 66.2289C610.702 66.2289 611.186 66.0473 611.501 65.6842C611.84 65.321 612.009 64.7037 612.009 63.8321V60.818C612.009 59.9464 611.84 59.3291 611.501 58.9659C611.186 58.6028 610.702 58.4212 610.048 58.4212H608.16V66.2289H610.048Z" fill="#9EA2AE"/>
<path d="M623.509 80.5734C621.573 80.5734 620.108 80.0287 619.115 78.9392C618.123 77.8256 617.626 76.2398 617.626 74.1819V72.7293H621.403V74.4725C621.403 76.1188 622.093 76.9419 623.473 76.9419C624.151 76.9419 624.659 76.7482 624.998 76.3609C625.361 75.9493 625.543 75.2956 625.543 74.3998C625.543 73.3346 625.301 72.4025 624.817 71.6036C624.333 70.7804 623.437 69.7999 622.129 68.662C620.483 67.2094 619.333 65.9021 618.679 64.74C618.026 63.5537 617.699 62.2222 617.699 60.7454C617.699 58.7359 618.207 57.1865 619.224 56.097C620.241 54.9833 621.718 54.4265 623.655 54.4265C625.567 54.4265 627.008 54.9833 627.976 56.097C628.969 57.1865 629.465 58.7601 629.465 60.818V61.8711H625.688V60.5638C625.688 59.6922 625.519 59.0627 625.18 58.6754C624.841 58.2638 624.345 58.058 623.691 58.058C622.359 58.058 621.694 58.8691 621.694 60.4911C621.694 61.4111 621.936 62.2706 622.42 63.0695C622.928 63.8684 623.836 64.8368 625.144 65.9747C626.814 67.4273 627.964 68.7468 628.594 69.9331C629.223 71.1194 629.538 72.5114 629.538 74.1093C629.538 76.1914 629.017 77.7892 627.976 78.9029C626.959 80.0166 625.47 80.5734 623.509 80.5734Z" fill="#9EA2AE"/>
<path d="M637.644 80.5734C635.707 80.5734 634.23 80.0287 633.213 78.9392C632.196 77.8256 631.688 76.2398 631.688 74.1819V54.7897H635.683V74.4725C635.683 75.344 635.852 75.9735 636.191 76.3609C636.554 76.7482 637.063 76.9419 637.716 76.9419C638.37 76.9419 638.866 76.7482 639.205 76.3609C639.568 75.9735 639.75 75.344 639.75 74.4725V54.7897H643.599V74.1819C643.599 76.2398 643.091 77.8256 642.074 78.9392C641.057 80.0287 639.58 80.5734 637.644 80.5734Z" fill="#9EA2AE"/>
<path d="M646.438 54.7897H652.14L654.682 72.9835H654.754L657.297 54.7897H662.998V80.2103H659.221V60.9633H659.149L656.243 80.2103H652.902L649.997 60.9633H649.925V80.2103H646.438V54.7897Z" fill="#9EA2AE"/>
<path d="M867.999 76.7572H872.662V52.2429H867.999V76.7572Z" fill="#9EA2AE"/>
<path d="M884.07 77.2715C889.522 77.2715 893.259 73.2258 893.259 67.9801C893.259 62.7343 889.522 58.6886 884.07 58.6886C878.619 58.6886 874.882 62.7343 874.882 67.9801C874.882 73.2258 878.619 77.2715 884.07 77.2715ZM884.07 73.7058C881.19 73.7058 879.613 71.4086 879.613 67.9801C879.613 64.5515 881.19 62.2201 884.07 62.2201C886.916 62.2201 888.527 64.5515 888.527 67.9801C888.527 71.4086 886.916 73.7058 884.07 73.7058Z" fill="#9EA2AE"/>
<path d="M903.175 82.7572C905.78 82.7572 908.043 82.1401 909.518 80.7686C910.82 79.5686 911.609 77.8886 911.609 75.4201V59.1686H907.118V61.0201H907.049C905.986 59.5458 904.375 58.6886 902.18 58.6886C897.723 58.6886 894.569 62.0486 894.569 67.2943C894.569 72.6086 898.409 75.6943 902.318 75.6943C904.546 75.6943 905.883 74.8029 906.912 73.6372H907.015V75.5572C907.015 77.9572 905.746 79.2258 903.106 79.2258C900.946 79.2258 899.952 78.3686 899.575 77.2715H894.946C895.426 80.7001 898.375 82.7572 903.175 82.7572ZM903.106 71.9572C900.706 71.9572 899.129 70.2086 899.129 67.2258C899.129 64.2772 900.706 62.4258 903.072 62.4258C905.883 62.4258 907.255 64.6201 907.255 67.1915C907.255 69.7972 906.055 71.9572 903.106 71.9572Z" fill="#9EA2AE"/>
<path d="M922.937 77.2715C928.389 77.2715 932.126 73.2258 932.126 67.9801C932.126 62.7343 928.389 58.6886 922.937 58.6886C917.486 58.6886 913.749 62.7343 913.749 67.9801C913.749 73.2258 917.486 77.2715 922.937 77.2715ZM922.937 73.7058C920.057 73.7058 918.48 71.4086 918.48 67.9801C918.48 64.5515 920.057 62.2201 922.937 62.2201C925.783 62.2201 927.395 64.5515 927.395 67.9801C927.395 71.4086 925.783 73.7058 922.937 73.7058Z" fill="#9EA2AE"/>
<path fill-rule="evenodd" clip-rule="evenodd" d="M957.126 50.5C966.514 50.5 974.126 58.1112 974.126 67.5C974.126 76.8888 966.514 84.5 957.126 84.5C947.737 84.5 940.126 76.8888 940.126 67.5C940.126 58.1112 947.737 50.5 957.126 50.5ZM956.511 51.7721C954.572 52.045 952.725 53.6034 951.292 56.2098C950.876 56.9658 950.501 57.801 950.174 58.7029C952.123 58.213 954.264 57.9243 956.511 57.8796V51.7721ZM948.737 59.1112C949.144 57.8351 949.641 56.6611 950.215 55.6176C950.926 54.3255 951.769 53.2098 952.719 52.3528C947.552 53.8534 943.479 57.9263 941.979 63.0933C942.836 62.1431 943.951 61.2998 945.243 60.5892C946.287 60.0152 947.461 59.5177 948.737 59.1112ZM948.329 60.5479C947.839 62.4972 947.55 64.6384 947.505 66.8855H941.398C941.671 64.9461 943.229 63.0994 945.836 61.6659C946.592 61.2501 947.427 60.8749 948.329 60.5479ZM948.735 66.8855C948.785 64.4332 949.138 62.1309 949.723 60.0967C951.757 59.5126 954.059 59.1595 956.511 59.1087V61.7632C955.597 64.1053 953.731 65.971 951.388 66.8855H948.735ZM947.505 68.1145H941.398C941.671 70.0539 943.229 71.9005 945.836 73.3341C946.592 73.7499 947.427 74.1251 948.329 74.4521C947.839 72.5028 947.55 70.3616 947.505 68.1145ZM949.723 74.9033C949.138 72.8691 948.785 70.5668 948.735 68.1145H951.388C953.731 69.029 955.597 70.8947 956.511 73.2368V75.8913C954.059 75.8405 951.757 75.4875 949.723 74.9033ZM948.737 75.8888C947.461 75.4823 946.287 74.9848 945.243 74.4108C943.951 73.7002 942.836 72.8569 941.979 71.9067C943.479 77.0737 947.552 81.1466 952.719 82.6472C951.769 81.7902 950.926 80.6745 950.215 79.3824C949.641 78.3389 949.144 77.1648 948.737 75.8888ZM956.511 83.2279C954.572 82.955 952.725 81.3966 951.292 78.7902C950.876 78.0342 950.501 77.1989 950.174 76.2972C952.123 76.7869 954.264 77.0758 956.511 77.1204V83.2279ZM961.532 82.6472C962.483 81.7902 963.326 80.6745 964.037 79.3824C964.61 78.3389 965.108 77.1648 965.515 75.8888C966.791 75.4823 967.964 74.9848 969.008 74.4108C970.3 73.7002 971.416 72.8569 972.273 71.9067C970.772 77.0737 966.7 81.1466 961.532 82.6472ZM964.078 76.2972C963.751 77.1989 963.375 78.0342 962.96 78.7902C961.526 81.3966 959.68 82.955 957.74 83.2279V77.1204C959.987 77.0758 962.129 76.7869 964.078 76.2972ZM965.923 74.4521C966.825 74.1251 967.66 73.7499 968.416 73.3341C971.023 71.9006 972.581 70.0539 972.854 68.1145H966.746C966.701 70.3616 966.412 72.5028 965.923 74.4521ZM965.517 68.1145C965.466 70.5668 965.113 72.8691 964.529 74.9033C962.495 75.4875 960.193 75.8405 957.74 75.8913V73.2388C958.655 70.8958 960.521 69.0292 962.864 68.1145H965.517ZM966.746 66.8855H972.854C972.581 64.9461 971.023 63.0994 968.416 61.6659C967.66 61.2501 966.825 60.8749 965.923 60.5479C966.412 62.4972 966.701 64.6384 966.746 66.8855ZM964.529 60.0967C965.113 62.1309 965.466 64.4332 965.517 66.8855H962.864C960.521 65.9708 958.655 64.1042 957.74 61.7612V59.1087C960.193 59.1595 962.495 59.5126 964.529 60.0967ZM965.515 59.1112C966.791 59.5177 967.964 60.0152 969.008 60.5892C970.3 61.2998 971.416 62.1431 972.273 63.0933C970.772 57.9263 966.7 53.8534 961.532 52.3528C962.483 53.2098 963.326 54.3255 964.037 55.6176C964.61 56.6611 965.108 57.8351 965.515 59.1112ZM957.74 51.7721C959.68 52.045 961.526 53.6034 962.96 56.2098C963.375 56.9658 963.751 57.801 964.078 58.7029C962.129 58.213 959.987 57.9243 957.74 57.8796V51.7721Z" fill="#9EA2AE"/>
<path d="M982.126 76.8772H986.789V59.2886H982.126V76.8772ZM982.126 56.5458H986.789V52.3629H982.126V56.5458Z" fill="#9EA2AE"/>
<path d="M989.798 82.6372H994.461V74.8886H994.529C995.523 76.3972 997.135 77.3915 999.603 77.3915C1004.13 77.3915 1007.21 73.7915 1007.21 68.1001C1007.21 62.6143 1004.23 58.8086 999.569 58.8086C997.169 58.8086 995.523 59.9401 994.392 61.4829H994.289V59.2886H989.798V82.6372ZM998.609 73.5172C995.832 73.5172 994.358 71.4258 994.358 68.2372C994.358 65.0829 995.523 62.5801 998.438 62.5801C1001.32 62.5801 1002.48 64.9115 1002.48 68.2372C1002.48 71.5629 1000.97 73.5172 998.609 73.5172Z" fill="#9EA2AE"/>
<path d="M1016.52 77.3915C1020.91 77.3915 1023.92 75.2658 1023.92 71.7343C1023.92 67.6201 1020.67 66.7972 1017.72 66.1801C1015.22 65.6658 1012.88 65.5286 1012.88 64.0201C1012.88 62.7515 1014.08 62.0658 1015.9 62.0658C1017.89 62.0658 1019.09 62.7515 1019.3 64.6372H1023.51C1023.17 61.1058 1020.6 58.8086 1015.97 58.8086C1011.96 58.8086 1008.8 60.6258 1008.8 64.4315C1008.8 68.2715 1011.89 69.1286 1015.04 69.7458C1017.44 70.2258 1019.67 70.3972 1019.67 72.0772C1019.67 73.3115 1018.51 74.1001 1016.45 74.1001C1014.36 74.1001 1012.92 73.2086 1012.61 71.1858H1008.29C1008.56 74.9229 1011.41 77.3915 1016.52 77.3915Z" fill="#9EA2AE"/>
<path d="M1041.62 76.8772V59.2886H1036.96V69.4372C1036.96 71.7686 1035.62 73.4143 1033.43 73.4143C1031.44 73.4143 1030.51 72.2829 1030.51 70.2258V59.2886H1025.88V71.0143C1025.88 74.8543 1028.08 77.3572 1031.99 77.3572C1034.46 77.3572 1035.83 76.4315 1037.03 74.8201H1037.13V76.8772H1041.62Z" fill="#9EA2AE"/>
<path d="M1044.64 76.8772H1049.3V66.6601C1049.3 64.3286 1050.57 62.8201 1052.46 62.8201C1054.17 62.8201 1055.17 63.8486 1055.17 65.8372V76.8772H1059.83V66.6601C1059.83 64.3286 1061.03 62.8201 1062.98 62.8201C1064.7 62.8201 1065.69 63.8486 1065.69 65.8372V76.8772H1070.36V65.0486C1070.36 61.2086 1068.26 58.8086 1064.56 58.8086C1062.33 58.8086 1060.48 59.9743 1059.28 61.8943H1059.21C1058.36 60.0429 1056.57 58.8086 1054.34 58.8086C1051.91 58.8086 1050.2 60.0429 1049.24 61.6543H1049.13V59.2886H1044.64V76.8772Z" fill="#9EA2AE"/>
<path fill-rule="evenodd" clip-rule="evenodd" d="M1292 84.5C1301.39 84.5 1309 76.8888 1309 67.5C1309 58.1112 1301.39 50.5 1292 50.5C1282.61 50.5 1275 58.1112 1275 67.5C1275 76.8888 1282.61 84.5 1292 84.5ZM1294.62 63.6347C1296.07 62.1855 1296.07 59.836 1294.62 58.3869C1293.17 56.9377 1290.82 56.9377 1289.38 58.3869C1287.93 59.836 1287.93 62.1855 1289.38 63.6347L1292 66.2586L1294.62 63.6347ZM1295.86 70.1239C1297.31 71.5731 1299.66 71.5731 1301.11 70.1239C1302.56 68.6748 1302.56 66.3253 1301.11 64.8761C1299.66 63.427 1297.31 63.427 1295.86 64.8761L1293.24 67.5001L1295.86 70.1239ZM1294.62 76.6132C1296.07 75.164 1296.07 72.8145 1294.62 71.3654L1292 68.7415L1289.38 71.3654C1287.93 72.8145 1287.93 75.164 1289.38 76.6132C1290.82 78.0623 1293.17 78.0623 1294.62 76.6132ZM1282.89 70.1239C1281.44 68.6748 1281.44 66.3253 1282.89 64.8761C1284.34 63.427 1286.68 63.427 1288.13 64.8761L1290.76 67.5001L1288.13 70.1239C1286.68 71.5731 1284.34 71.5731 1282.89 70.1239Z" fill="#9EA2AE"/>
<path d="M1323 73.956H1334.95V70.356H1327.25V56.796H1323V73.956Z" fill="#9EA2AE"/>
<path d="M1342.03 71.556C1340.32 71.556 1339.44 70.068 1339.44 67.836C1339.44 65.604 1340.32 64.092 1342.03 64.092C1343.73 64.092 1344.64 65.604 1344.64 67.836C1344.64 70.068 1343.73 71.556 1342.03 71.556ZM1342.05 74.34C1346.01 74.34 1348.6 71.532 1348.6 67.836C1348.6 64.14 1346.01 61.332 1342.05 61.332C1338.12 61.332 1335.48 64.14 1335.48 67.836C1335.48 71.532 1338.12 74.34 1342.05 74.34Z" fill="#9EA2AE"/>
<path d="M1355.46 78.204C1357.28 78.204 1358.89 77.796 1359.97 76.836C1360.95 75.948 1361.6 74.604 1361.6 72.756V61.668H1357.86V62.988H1357.81C1357.09 61.956 1355.99 61.308 1354.35 61.308C1351.31 61.308 1349.19 63.852 1349.19 67.452C1349.19 71.22 1351.76 73.284 1354.52 73.284C1356.01 73.284 1356.95 72.684 1357.67 71.868H1357.76V73.092C1357.76 74.58 1357.07 75.444 1355.41 75.444C1354.11 75.444 1353.47 74.892 1353.25 74.244H1349.46C1349.84 76.812 1352.07 78.204 1355.46 78.204ZM1355.43 70.38C1353.97 70.38 1353.01 69.18 1353.01 67.332C1353.01 65.46 1353.97 64.26 1355.43 64.26C1357.07 64.26 1357.93 65.652 1357.93 67.308C1357.93 69.036 1357.14 70.38 1355.43 70.38Z" fill="#9EA2AE"/>
<path d="M1369.3 71.556C1367.6 71.556 1366.71 70.068 1366.71 67.836C1366.71 65.604 1367.6 64.092 1369.3 64.092C1371.01 64.092 1371.92 65.604 1371.92 67.836C1371.92 70.068 1371.01 71.556 1369.3 71.556ZM1369.33 74.34C1373.28 74.34 1375.88 71.532 1375.88 67.836C1375.88 64.14 1373.28 61.332 1369.33 61.332C1365.39 61.332 1362.75 64.14 1362.75 67.836C1362.75 71.532 1365.39 74.34 1369.33 74.34Z" fill="#9EA2AE"/>
<path d="M1377.02 73.956H1380.93V61.668H1377.02V73.956ZM1377.02 59.964H1380.93V56.796H1377.02V59.964Z" fill="#9EA2AE"/>
<path d="M1382.63 78.012H1386.54V72.684H1386.59C1387.36 73.716 1388.49 74.34 1390.07 74.34C1393.29 74.34 1395.42 71.796 1395.42 67.812C1395.42 64.116 1393.43 61.308 1390.17 61.308C1388.49 61.308 1387.29 62.052 1386.45 63.156H1386.38V61.668H1382.63V78.012ZM1389.06 71.316C1387.38 71.316 1386.42 69.948 1386.42 67.956C1386.42 65.964 1387.29 64.452 1388.99 64.452C1390.67 64.452 1391.46 65.844 1391.46 67.956C1391.46 70.044 1390.55 71.316 1389.06 71.316Z" fill="#9EA2AE"/>
<path d="M1401.79 74.34C1405 74.34 1407.38 72.948 1407.38 70.26C1407.38 67.116 1404.84 66.564 1402.68 66.204C1401.12 65.916 1399.72 65.796 1399.72 64.932C1399.72 64.164 1400.47 63.804 1401.43 63.804C1402.51 63.804 1403.25 64.14 1403.4 65.244H1407C1406.8 62.82 1404.93 61.308 1401.45 61.308C1398.55 61.308 1396.15 62.652 1396.15 65.244C1396.15 68.124 1398.43 68.7 1400.56 69.06C1402.2 69.348 1403.68 69.468 1403.68 70.572C1403.68 71.364 1402.94 71.796 1401.76 71.796C1400.47 71.796 1399.65 71.196 1399.51 69.972H1395.81C1395.93 72.684 1398.19 74.34 1401.79 74.34Z" fill="#9EA2AE"/>
<path d="M1412.69 74.316C1414.4 74.316 1415.48 73.644 1416.37 72.444H1416.44V73.956H1420.18V61.668H1416.27V68.532C1416.27 69.996 1415.45 71.004 1414.11 71.004C1412.86 71.004 1412.26 70.26 1412.26 68.916V61.668H1408.37V69.732C1408.37 72.468 1409.86 74.316 1412.69 74.316Z" fill="#9EA2AE"/>
<path d="M1421.89 73.956H1425.8V67.068C1425.8 65.604 1426.52 64.572 1427.75 64.572C1428.92 64.572 1429.47 65.34 1429.47 66.66V73.956H1433.39V67.068C1433.39 65.604 1434.08 64.572 1435.33 64.572C1436.51 64.572 1437.06 65.34 1437.06 66.66V73.956H1440.97V65.964C1440.97 63.204 1439.58 61.308 1436.79 61.308C1435.21 61.308 1433.89 61.98 1432.93 63.468H1432.88C1432.26 62.148 1431.03 61.308 1429.43 61.308C1427.65 61.308 1426.47 62.148 1425.71 63.42H1425.63V61.668H1421.89V73.956Z" fill="#9EA2AE"/>
<path d="M1666 50.5C1656.61 50.5 1649 58.1112 1649 67.5C1658.39 67.5 1666 59.8888 1666 50.5Z" fill="#9EA2AE"/>
<path d="M1666 84.5C1675.39 84.5 1683 76.8888 1683 67.5C1673.61 67.5 1666 75.1112 1666 84.5Z" fill="#9EA2AE"/>
<path d="M1666 50.5C1675.39 50.5 1683 58.1112 1683 67.5C1673.61 67.5 1666 59.8888 1666 50.5Z" fill="#9EA2AE"/>
<path d="M1666 84.5C1656.61 84.5 1649 76.8888 1649 67.5C1658.39 67.5 1666 75.1112 1666 84.5Z" fill="#9EA2AE"/>
<path d="M1697.75 73.6092H1709.1V70.3765H1701.21V55.2819H1697.75V73.6092Z" fill="#9EA2AE"/>
<path d="M1715.92 73.9909C1717.3 73.9909 1718.51 73.6854 1719.55 73.0745C1720.6 72.4551 1721.42 71.6024 1722.01 70.5164C1722.6 69.4218 1722.9 68.1618 1722.9 66.7364C1722.9 65.3194 1722.61 64.0679 1722.02 62.9818C1721.44 61.8873 1720.62 61.0303 1719.56 60.4109C1718.52 59.7915 1717.31 59.4818 1715.92 59.4818C1714.57 59.4818 1713.37 59.7873 1712.32 60.3982C1711.28 61.0091 1710.46 61.8618 1709.87 62.9564C1709.27 64.0424 1708.98 65.3024 1708.98 66.7364C1708.98 68.1533 1709.26 69.4091 1709.84 70.5036C1710.43 71.5897 1711.24 72.4424 1712.28 73.0618C1713.33 73.6812 1714.54 73.9909 1715.92 73.9909ZM1715.92 70.7582C1714.85 70.7582 1714.03 70.3976 1713.47 69.6764C1712.92 68.9467 1712.64 67.9667 1712.64 66.7364C1712.64 65.54 1712.9 64.5727 1713.43 63.8345C1713.96 63.0879 1714.8 62.7145 1715.92 62.7145C1717.02 62.7145 1717.84 63.0794 1718.39 63.8091C1718.95 64.5388 1719.23 65.5145 1719.23 66.7364C1719.23 67.9158 1718.96 68.883 1718.41 69.6382C1717.86 70.3848 1717.04 70.7582 1715.92 70.7582Z" fill="#9EA2AE"/>
<path d="M1729.74 73.9909C1730.39 73.9909 1730.98 73.9145 1731.53 73.7618C1732.08 73.6091 1732.58 73.3927 1733.03 73.1127V74.5C1733.04 75.0091 1732.91 75.4333 1732.63 75.7727C1732.36 76.1206 1732 76.3794 1731.54 76.5491C1731.08 76.7273 1730.59 76.8164 1730.07 76.8164C1729.59 76.8164 1729.14 76.7103 1728.73 76.4982C1728.32 76.2861 1728 75.9764 1727.78 75.5691L1724.58 77.1218C1725.1 78.0127 1725.85 78.7297 1726.83 79.2727C1727.8 79.8242 1728.88 80.1 1730.05 80.1C1731.06 80.1 1732 79.9642 1732.86 79.6927C1733.73 79.4297 1734.46 79.0267 1735.05 78.4836C1735.65 77.9406 1736.06 77.2491 1736.29 76.4091C1736.36 76.1121 1736.41 75.8109 1736.44 75.5054C1736.47 75.2085 1736.49 74.8903 1736.49 74.5509V59.8636H1733.46V60.6273C1732.99 60.2624 1732.46 59.9824 1731.87 59.7873C1731.28 59.5836 1730.63 59.4818 1729.92 59.4818C1728.61 59.4818 1727.46 59.7958 1726.49 60.4236C1725.51 61.0515 1724.75 61.9127 1724.21 63.0073C1723.67 64.0933 1723.41 65.3364 1723.41 66.7364C1723.41 68.1109 1723.67 69.3454 1724.19 70.44C1724.73 71.5345 1725.47 72.4 1726.42 73.0364C1727.37 73.6727 1728.48 73.9909 1729.74 73.9909ZM1730.3 70.9109C1729.56 70.9109 1728.95 70.7242 1728.47 70.3509C1728 69.9776 1727.64 69.477 1727.41 68.8491C1727.19 68.2127 1727.07 67.5085 1727.07 66.7364C1727.07 65.9727 1727.19 65.277 1727.43 64.6491C1727.66 64.0127 1728.03 63.5079 1728.52 63.1345C1729.02 62.7527 1729.66 62.5618 1730.43 62.5618C1731.52 62.5618 1732.29 62.9479 1732.76 63.72C1733.23 64.4836 1733.46 65.4891 1733.46 66.7364C1733.46 67.9836 1733.22 68.9933 1732.75 69.7654C1732.28 70.5291 1731.47 70.9109 1730.3 70.9109Z" fill="#9EA2AE"/>
<path d="M1744.71 73.9909C1746.08 73.9909 1747.29 73.6854 1748.33 73.0745C1749.39 72.4551 1750.2 71.6024 1750.79 70.5164C1751.38 69.4218 1751.68 68.1618 1751.68 66.7364C1751.68 65.3194 1751.39 64.0679 1750.8 62.9818C1750.22 61.8873 1749.4 61.0303 1748.35 60.4109C1747.3 59.7915 1746.09 59.4818 1744.71 59.4818C1743.35 59.4818 1742.15 59.7873 1741.1 60.3982C1740.06 61.0091 1739.24 61.8618 1738.65 62.9564C1738.05 64.0424 1737.76 65.3024 1737.76 66.7364C1737.76 68.1533 1738.05 69.4091 1738.62 70.5036C1739.21 71.5897 1740.02 72.4424 1741.07 73.0618C1742.11 73.6812 1743.32 73.9909 1744.71 73.9909ZM1744.71 70.7582C1743.63 70.7582 1742.81 70.3976 1742.25 69.6764C1741.7 68.9467 1741.42 67.9667 1741.42 66.7364C1741.42 65.54 1741.69 64.5727 1742.21 63.8345C1742.75 63.0879 1743.58 62.7145 1744.71 62.7145C1745.8 62.7145 1746.62 63.0794 1747.18 63.8091C1747.74 64.5388 1748.02 65.5145 1748.02 66.7364C1748.02 67.9158 1747.74 68.883 1747.19 69.6382C1746.64 70.3848 1745.82 70.7582 1744.71 70.7582Z" fill="#9EA2AE"/>
<path d="M1753.21 57.9545H1756.67V54.9H1753.21V57.9545ZM1753.21 73.6091H1756.67V59.8636H1753.21V73.6091Z" fill="#9EA2AE"/>
<path d="M1758.94 79.7182H1762.42V73.1127C1762.87 73.3927 1763.37 73.6091 1763.91 73.7618C1764.46 73.9145 1765.06 73.9909 1765.71 73.9909C1766.97 73.9909 1768.08 73.6727 1769.03 73.0364C1769.98 72.4 1770.72 71.5345 1771.24 70.44C1771.78 69.3454 1772.05 68.1109 1772.05 66.7364C1772.05 65.3364 1771.77 64.0933 1771.23 63.0073C1770.7 61.9127 1769.94 61.0515 1768.97 60.4236C1767.99 59.7958 1766.84 59.4818 1765.53 59.4818C1764.82 59.4818 1764.16 59.5836 1763.57 59.7873C1762.98 59.9824 1762.46 60.2624 1761.99 60.6273V59.8636H1758.94V79.7182ZM1765.15 70.9109C1763.99 70.9109 1763.18 70.5291 1762.7 69.7654C1762.23 68.9933 1761.99 67.9836 1761.99 66.7364C1761.99 65.4891 1762.22 64.4836 1762.69 63.72C1763.17 62.9479 1763.94 62.5618 1765.02 62.5618C1765.79 62.5618 1766.42 62.7527 1766.92 63.1345C1767.42 63.5079 1767.79 64.0127 1768.02 64.6491C1768.26 65.277 1768.38 65.9727 1768.38 66.7364C1768.38 67.5085 1768.27 68.2127 1768.04 68.8491C1767.81 69.477 1767.46 69.9776 1766.98 70.3509C1766.51 70.7242 1765.89 70.9109 1765.15 70.9109Z" fill="#9EA2AE"/>
<path d="M1778.31 73.9909C1780.11 73.9909 1781.52 73.5879 1782.54 72.7818C1783.56 71.9757 1784.07 70.8685 1784.07 69.46C1784.07 68.3909 1783.73 67.5467 1783.07 66.9273C1782.42 66.3079 1781.31 65.7945 1779.74 65.3873C1778.67 65.1157 1777.87 64.8951 1777.35 64.7254C1776.83 64.5558 1776.48 64.3903 1776.31 64.2291C1776.15 64.0679 1776.07 63.8685 1776.07 63.6309C1776.07 63.2321 1776.26 62.9267 1776.65 62.7145C1777.04 62.5024 1777.55 62.4176 1778.19 62.46C1779.53 62.5618 1780.27 63.1388 1780.4 64.1909L1783.94 63.5545C1783.76 62.3073 1783.15 61.3188 1782.11 60.5891C1781.06 59.8509 1779.73 59.4818 1778.11 59.4818C1776.45 59.4818 1775.12 59.8721 1774.13 60.6527C1773.13 61.4333 1772.64 62.4854 1772.64 63.8091C1772.64 64.8612 1772.98 65.6927 1773.67 66.3036C1774.35 66.9061 1775.54 67.4236 1777.22 67.8564C1778.21 68.1194 1778.94 68.3315 1779.41 68.4927C1779.88 68.6539 1780.19 68.8194 1780.32 68.9891C1780.46 69.1503 1780.53 69.3667 1780.53 69.6382C1780.53 70.0709 1780.36 70.4103 1780.02 70.6564C1779.68 70.8939 1779.2 71.0127 1778.57 71.0127C1777.8 71.0127 1777.17 70.8303 1776.67 70.4654C1776.18 70.1006 1775.86 69.5958 1775.72 68.9509L1772.18 69.4854C1772.41 70.9194 1773.05 72.0309 1774.11 72.82C1775.18 73.6006 1776.58 73.9909 1778.31 73.9909Z" fill="#9EA2AE"/>
<path d="M1790.46 74.0164C1791.45 74.0164 1792.31 73.8509 1793.05 73.52C1793.79 73.1891 1794.41 72.7479 1794.91 72.1964V73.6091H1797.97V59.8636H1794.48V66.8382C1794.48 67.6867 1794.38 68.3739 1794.19 68.9C1794 69.4176 1793.76 69.8121 1793.46 70.0836C1793.16 70.3467 1792.85 70.5248 1792.51 70.6182C1792.17 70.7115 1791.85 70.7582 1791.55 70.7582C1790.81 70.7582 1790.24 70.5927 1789.83 70.2618C1789.43 69.9309 1789.15 69.5194 1788.97 69.0273C1788.79 68.5351 1788.68 68.0473 1788.65 67.5636C1788.62 67.0715 1788.6 66.6685 1788.6 66.3545V59.8636H1785.09V67.5764C1785.09 67.8054 1785.1 68.1703 1785.14 68.6709C1785.17 69.1715 1785.27 69.7273 1785.43 70.3382C1785.59 70.9406 1785.86 71.5218 1786.23 72.0818C1786.61 72.6418 1787.14 73.1042 1787.82 73.4691C1788.5 73.8339 1789.38 74.0164 1790.46 74.0164Z" fill="#9EA2AE"/>
<path d="M1799.97 73.6091H1803.45V65.2854C1803.45 64.4964 1803.67 63.8558 1804.1 63.3636C1804.54 62.863 1805.13 62.6127 1805.85 62.6127C1806.6 62.6127 1807.19 62.8673 1807.62 63.3764C1808.05 63.877 1808.27 64.5812 1808.27 65.4891V73.6091H1811.73V65.2854C1811.73 64.4964 1811.94 63.8558 1812.38 63.3636C1812.82 62.863 1813.4 62.6127 1814.12 62.6127C1814.88 62.6127 1815.46 62.8673 1815.89 63.3764C1816.32 63.877 1816.54 64.5812 1816.54 65.4891V73.6091H1820V64.5727C1820 63.0709 1819.6 61.8576 1818.79 60.9327C1817.99 59.9994 1816.81 59.5327 1815.24 59.5327C1814.36 59.5327 1813.55 59.7236 1812.81 60.1054C1812.07 60.4873 1811.48 61.0091 1811.04 61.6709C1810.68 61.0261 1810.17 60.5085 1809.51 60.1182C1808.85 59.7279 1808.03 59.5327 1807.04 59.5327C1806.21 59.5327 1805.45 59.6982 1804.75 60.0291C1804.06 60.3515 1803.48 60.797 1803.02 61.3654V59.8636H1799.97V73.6091Z" fill="#9EA2AE"/>
</svg>
