<svg width="60" height="60" viewBox="0 0 60 60" fill="none" xmlns="http://www.w3.org/2000/svg">
<rect width="60" height="60" rx="6.93333" fill="white"/>
<path d="M17.1351 31.6181C16.6645 28.555 16.4291 27.0236 17.0082 25.6659C17.5873 24.3082 18.872 23.3793 21.4415 21.5215L23.3613 20.1334C26.5577 17.8223 28.1558 16.6667 30 16.6667C31.8441 16.6667 33.4422 17.8223 36.6386 20.1334L38.5585 21.5215C41.128 23.3793 42.4126 24.3082 42.9917 25.6659C43.5708 27.0236 43.3354 28.555 42.8648 31.6181L42.4634 34.2299C41.7961 38.5719 41.4625 40.743 39.9053 42.0382C38.3481 43.3334 36.0716 43.3334 31.5184 43.3334H28.4816C23.9284 43.3334 21.6518 43.3334 20.0946 42.0382C18.5374 40.743 18.2038 38.5719 17.5365 34.2299L17.1351 31.6181Z" stroke="#0B3A78" stroke-width="2" stroke-linejoin="round"/>
<path d="M29 31.6666C30.5824 33.249 32.6667 34.8572 32.6667 34.8572L35.5239 32C35.5239 32 33.9157 29.9157 32.3333 28.3333C30.7509 26.7509 28.6667 25.1428 28.6667 25.1428L25.8095 28C25.8095 28 27.4176 30.0842 29 31.6666ZM29 31.6666L24 36.6666M36 31.5238L32.1905 35.3333M29.1428 24.6666L25.3333 28.4761" stroke="#0B3A78" stroke-width="2" stroke-linecap="round" stroke-linejoin="round"/>
</svg>
