<svg width="38" height="38" viewBox="0 0 38 38" fill="none" xmlns="http://www.w3.org/2000/svg">
<path d="M19 2.29907L4.75 7.48132V19.0001C4.75 32.0151 18.5784 35.5562 18.7174 35.5918L19 35.6595L19.2826 35.5918C19.4216 35.5562 33.25 32.0151 33.25 19.0001V7.48132L19 2.29907ZM30.875 19.0001C30.875 29.3064 20.8881 32.6646 19.0047 33.2061C17.1879 32.6682 7.125 29.2173 7.125 19.0001V9.14382L19 4.82607L30.875 9.14382V19.0001Z" fill="#0B3A78"/>
<path d="M12.7145 18.1604L11.0354 19.8395L16.625 25.4291L26.9645 15.0895L25.2854 13.4104L16.625 22.0708L12.7145 18.1604Z" fill="#0B3A78"/>
</svg>
