<svg width="60" height="56" viewBox="0 0 60 56" fill="none" xmlns="http://www.w3.org/2000/svg">
<rect width="60" height="56" rx="7" fill="#0B3A78"/>
<path d="M30 17.6875C21.1776 17.6875 14 24.8371 14 33.625C14 34.1427 14.4197 34.5625 14.9375 34.5625H20.625C21.1427 34.5625 21.5625 34.1427 21.5625 33.625C21.5625 29.0242 25.3048 25.1875 30 25.1875C31.8996 25.1875 33.6544 25.8187 35.0662 26.8821L27.9852 31.3993C26.8987 32.0924 26.25 33.2749 26.25 34.5625C26.25 36.6302 27.9323 38.3125 30 38.3125C31.4524 38.3125 32.7873 37.4614 33.4007 36.1444L36.8597 28.7178C37.8523 30.1014 38.4375 31.7961 38.4375 33.625C38.4375 34.1427 38.8573 34.5625 39.375 34.5625H45.0625C45.5802 34.5625 46 34.1427 46 33.625C46 24.8371 38.8224 17.6875 30 17.6875ZM19.7306 32.6875H15.9071C16.1188 29.5027 17.3998 26.6046 19.3956 24.3464L22.0787 27.0296C20.7748 28.593 19.9244 30.5469 19.7306 32.6875ZM29.0625 23.3556C26.9219 23.5494 24.968 24.3997 23.4046 25.7037L20.727 23.0262C22.9893 21.0618 25.884 19.8026 29.0625 19.5943V23.3556ZM31.7011 35.3528C31.3942 36.0118 30.7264 36.4375 30 36.4375C28.9661 36.4375 28.125 35.5964 28.125 34.5625C28.125 33.9186 28.4497 33.327 28.9936 32.9801L34.4177 29.5198L31.7011 35.3528ZM36.5954 25.7037C35.032 24.3998 33.0781 23.5494 30.9375 23.3556V19.594C34.1159 19.8024 37.0103 21.0621 39.2726 23.0266L36.5954 25.7037ZM40.2694 32.6875C40.0756 30.5469 39.2253 28.593 37.9212 27.0296L40.6045 24.3463C42.6004 26.6046 43.8822 29.5027 44.0939 32.6875H40.2694Z" fill="white"/>
</svg>
