<svg width="60" height="60" viewBox="0 0 60 60" fill="none" xmlns="http://www.w3.org/2000/svg">
<rect width="60" height="60" rx="6.93333" fill="white"/>
<path d="M20.304 35.5159C18.244 33.4546 17.2134 32.4253 16.8307 31.0879C16.4467 29.7506 16.7747 28.3306 17.4307 25.4919L17.808 23.8546C18.3587 21.4653 18.6347 20.2706 19.452 19.4519C20.2694 18.6333 21.4654 18.3586 23.8547 17.8079L25.492 17.4293C28.332 16.7746 29.7507 16.4466 31.088 16.8293C32.4254 17.2133 33.4547 18.2439 35.5147 20.3039L37.9547 22.7439C41.5427 26.3306 43.3334 28.1226 43.3334 30.3493C43.3334 32.5773 41.5414 34.3693 37.956 37.9546C34.3694 41.5413 32.5774 43.3333 30.3494 43.3333C28.1227 43.3333 26.3294 41.5413 22.744 37.9559L20.304 35.5159Z" stroke="#0B3A78" stroke-width="2.28571"/>
<path d="M34.52 34.52C35.3 33.7373 35.4053 32.5773 34.7546 31.9253C34.104 31.2733 32.9426 31.38 32.1613 32.1613C31.3813 32.9426 30.22 33.048 29.5693 32.3973C28.9186 31.7466 29.024 30.5853 29.8053 29.8053M29.8053 29.8053L29.3333 29.3333M29.8053 29.8053C30.2466 29.3626 30.8093 29.1386 31.3333 29.1426M34.9906 34.9906L34.5186 34.5186C33.9853 35.0533 33.272 35.272 32.6666 35.1466" stroke="#0B3A78" stroke-width="2.28571" stroke-linecap="round"/>
<path d="M27.3616 27.7244C28.403 26.683 28.403 24.9945 27.3616 23.9531C26.3202 22.9117 24.6318 22.9117 23.5904 23.9531C22.549 24.9945 22.549 26.683 23.5904 27.7244C24.6318 28.7658 26.3202 28.7658 27.3616 27.7244Z" stroke="#0B3A78" stroke-width="2.28571"/>
</svg>
