<svg width="60" height="60" viewBox="0 0 60 60" fill="none" xmlns="http://www.w3.org/2000/svg">
<rect width="60" height="60" rx="7" fill="#0B3A78"/>
<g clip-path="url(#clip0_20_818)">
<path d="M27.7941 39.7941C29.8235 39.7941 31.6764 39.3529 33.4411 38.3823L38.2059 43.147C39.5294 44.4706 41.7353 44.4706 43.147 43.147C44.5588 41.8235 44.5588 39.5294 43.147 38.2059L38.3823 33.4411C39.2647 31.7647 39.7941 29.8235 39.7941 27.7941C39.7941 21.2647 34.4117 15.8823 27.7941 15.8823C21.2647 15.8823 15.8823 21.2647 15.8823 27.7941C15.8823 34.4117 21.2647 39.7941 27.7941 39.7941ZM41.8235 39.4411C42.5294 40.147 42.5294 41.2059 41.8235 41.9117C41.1176 42.6176 40.0588 42.6176 39.3529 41.9117L34.8529 37.4117C35.9117 36.6176 36.5294 36 37.3235 34.9411L41.8235 39.4411ZM27.7941 17.647C33.4411 17.647 37.9411 22.2353 37.9411 27.7941C37.9411 33.4411 33.3529 37.9411 27.7941 37.9411C22.2353 38.0294 17.647 33.4411 17.647 27.7941C17.647 22.2353 22.2353 17.647 27.7941 17.647Z" fill="white"/>
<path d="M22.5 33.5295H33.0883C33.6177 33.5295 33.9706 33.1765 33.9706 32.6471V31.3236C33.9706 29.5589 32.5589 27.7942 31.4118 26.8236C31.6765 26.2942 31.7647 25.7647 31.7647 25.1471C31.7647 22.9412 30 21.1765 27.7941 21.1765C25.5883 21.1765 23.8236 22.9412 23.8236 25.1471C23.8236 25.7647 24 26.2942 24.1765 26.8236C22.853 27.7942 21.6177 29.3824 21.6177 31.3236V32.6471C21.6177 33.1765 22.0589 33.5295 22.5 33.5295ZM27.7941 22.9412C29.0294 22.9412 30 23.9118 30 25.1471C30 26.3824 29.0294 27.353 27.7941 27.353C26.5589 27.353 25.5883 26.3824 25.5883 25.1471C25.5883 23.9118 26.6471 22.9412 27.7941 22.9412ZM23.3824 31.3236C23.3824 30.0883 24.2647 28.9412 25.3236 28.2353C26.0294 28.7647 26.8236 29.1177 27.7941 29.1177C28.7647 29.1177 29.5589 28.7647 30.2647 28.2353C31.0589 28.853 32.2059 30.2647 32.2059 31.3236V31.7647H23.3824V31.3236Z" fill="white"/>
</g>
<defs>
<clipPath id="clip0_20_818">
<rect width="30" height="30" fill="white" transform="translate(15 15)"/>
</clipPath>
</defs>
</svg>
