<svg width="38" height="38" viewBox="0 0 38 38" fill="none" xmlns="http://www.w3.org/2000/svg">
<path d="M14.25 19C14.25 18.5801 14.0832 18.1773 13.7863 17.8804C13.4894 17.5835 13.0866 17.4167 12.6667 17.4167C12.2468 17.4167 11.8441 17.5835 11.5471 17.8804C11.2502 18.1773 11.0834 18.5801 11.0834 19V20.5833C11.0834 21.0033 11.2502 21.406 11.5471 21.7029C11.8441 21.9999 12.2468 22.1667 12.6667 22.1667C13.0866 22.1667 13.4894 21.9999 13.7863 21.7029C14.0832 21.406 14.25 21.0033 14.25 20.5833V19ZM15.8334 20.5833V11.0833C15.8334 10.6634 16.0002 10.2607 16.2971 9.96375C16.5941 9.66682 16.9968 9.5 17.4167 9.5C17.8366 9.5 18.2394 9.66682 18.5363 9.96375C18.8332 10.2607 19 10.6634 19 11.0833V20.5833C19 21.0033 18.8332 21.406 18.5363 21.7029C18.2394 21.9999 17.8366 22.1667 17.4167 22.1667C16.9968 22.1667 16.5941 21.9999 16.2971 21.7029C16.0002 21.406 15.8334 21.0033 15.8334 20.5833ZM23.75 15.8333C23.75 15.4134 23.5832 15.0107 23.2863 14.7137C22.9894 14.4168 22.5866 14.25 22.1667 14.25C21.7468 14.25 21.3441 14.4168 21.0471 14.7137C20.7502 15.0107 20.5834 15.4134 20.5834 15.8333V20.5833C20.5834 21.0033 20.7502 21.406 21.0471 21.7029C21.3441 21.9999 21.7468 22.1667 22.1667 22.1667C22.5866 22.1667 22.9894 21.9999 23.2863 21.7029C23.5832 21.406 23.75 21.0033 23.75 20.5833V15.8333Z" fill="#0B3A78"/>
<path fill-rule="evenodd" clip-rule="evenodd" d="M26.9009 7.23911C25.0039 5.34292 22.5989 4.03591 19.9759 3.47565C17.3529 2.91539 14.6239 3.1258 12.1177 4.08151C9.61163 5.03723 7.43545 6.69744 5.85156 8.86201C4.26768 11.0266 3.34372 13.6031 3.19106 16.2809C3.0384 18.9587 3.66358 21.6235 4.9912 23.9541C6.31883 26.2846 8.29224 28.1814 10.6735 29.4157C13.0548 30.6501 15.7423 31.1692 18.4119 30.9107C21.0816 30.6522 23.6195 29.6269 25.7197 27.9586L32.1306 34.3711C32.4277 34.668 32.8306 34.8347 33.2506 34.8346C33.6706 34.8344 34.0733 34.6674 34.3702 34.3703C34.6671 34.0732 34.8338 33.6704 34.8337 33.2503C34.8335 32.8303 34.6665 32.4276 34.3694 32.1307L27.9585 25.7182C30.0809 23.0452 31.1461 19.685 30.9513 16.2774C30.7566 12.8699 29.3139 9.65293 26.9009 7.23911ZM9.47943 9.47795C11.493 7.4644 14.2239 6.3332 17.0715 6.3332C19.9191 6.3332 22.6501 7.4644 24.6636 9.47795C26.6771 11.4915 27.8083 14.2224 27.8083 17.07C27.8083 19.9176 26.6771 22.6486 24.6636 24.6621C22.6501 26.6757 19.9191 27.8069 17.0715 27.8069C14.2239 27.8069 11.493 26.6757 9.47943 24.6621C7.46589 22.6486 6.33469 19.9176 6.33469 17.07C6.33469 14.2224 7.46589 11.4915 9.47943 9.47795Z" fill="#0B3A78"/>
</svg>
