<svg width="60" height="60" viewBox="0 0 60 60" fill="none" xmlns="http://www.w3.org/2000/svg">
<rect width="60" height="60" rx="6.93333" fill="white"/>
<path d="M32.6666 40.6667C32.6666 40.6667 34 40.6667 35.3333 43.3334C35.3333 43.3334 39.5686 36.6667 43.3333 35.3334" stroke="#0B3A78" stroke-width="2" stroke-linecap="round" stroke-linejoin="round"/>
<path d="M38 32.6667C37.934 31.8367 37.8353 31.0163 37.7258 30.2071C37.4248 27.98 35.5729 26.2353 33.3194 26.1321C31.423 26.0453 29.4968 26 27.3754 26C25.2542 26 23.3279 26.0453 21.4316 26.1321C19.178 26.2353 17.3261 27.98 17.0251 30.2071C16.8287 31.6604 16.6666 33.1499 16.6666 34.6667C16.6666 36.1835 16.8287 37.6729 17.0251 39.1263C17.3261 41.3533 19.178 43.098 21.4316 43.2012C23.3279 43.288 25.2542 43.3333 27.3754 43.3333C28.0458 43.3333 28.6966 43.3288 29.3333 43.3199" stroke="#0B3A78" stroke-width="2" stroke-linecap="round"/>
<path d="M21.3334 26.0001V22.6667C21.3334 19.353 24.0197 16.6667 27.3334 16.6667C30.6471 16.6667 33.3334 19.353 33.3334 22.6667V26.0001" stroke="#0B3A78" stroke-width="2" stroke-linecap="round" stroke-linejoin="round"/>
</svg>
