<svg width="64" height="60" viewBox="0 0 64 60" fill="none" xmlns="http://www.w3.org/2000/svg">
<rect width="64" height="60" rx="7" fill="#0B3A78"/>
<g clip-path="url(#clip0_20_877)">
<path d="M40.8001 44.0001H23.2001C21.5835 44.0001 20.2667 42.6369 20.2667 40.9601V26.7734C20.2667 25.0965 21.5835 23.7334 23.2001 23.7334H40.8001C42.4166 23.7334 43.7334 25.0965 43.7334 26.7734V40.9601C43.7334 42.6369 42.4166 44.0001 40.8001 44.0001ZM23.2001 25.7601C22.6615 25.7601 22.2223 26.214 22.2223 26.7734V40.9601C22.2223 41.5194 22.6615 41.9734 23.2001 41.9734H40.8001C41.3386 41.9734 41.7778 41.5194 41.7778 40.9601V26.7734C41.7778 26.214 41.3386 25.7601 40.8001 25.7601H23.2001Z" fill="white"/>
<path d="M39.2667 26C38.7147 26 38.2667 25.552 38.2667 25V20C38.2667 16.6919 35.5748 14 32.2667 14C28.9586 14 26.2667 16.6919 26.2667 20V25C26.2667 25.552 25.8187 26 25.2667 26C24.7147 26 24.2667 25.552 24.2667 25V20C24.2667 15.5879 27.8546 12 32.2667 12C36.6788 12 40.2667 15.5879 40.2667 20V25C40.2667 25.552 39.8187 26 39.2667 26Z" fill="white"/>
</g>
<defs>
<clipPath id="clip0_20_877">
<rect width="23.4667" height="32" fill="white" transform="translate(20.2667 12)"/>
</clipPath>
</defs>
</svg>
