<svg width="25" height="25" viewBox="0 0 25 25" fill="none" xmlns="http://www.w3.org/2000/svg">
<path d="M1.60627 11.675L8.98933 8.98757L11.675 1.60627C11.7366 1.43717 11.8487 1.29112 11.9961 1.18791C12.1436 1.08471 12.3192 1.02935 12.4991 1.02935C12.6791 1.02935 12.8547 1.08471 13.0021 1.18791C13.1495 1.29112 13.2616 1.43717 13.3232 1.60627L16.0107 8.98933L23.3937 11.675C23.5628 11.7366 23.7089 11.8487 23.8121 11.9961C23.9153 12.1436 23.9706 12.3192 23.9706 12.4991C23.9706 12.6791 23.9153 12.8547 23.8121 13.0021C23.7089 13.1495 23.5628 13.2616 23.3937 13.3232L16.0089 16.0107L13.3232 23.3937C13.2616 23.5628 13.1495 23.7089 13.0021 23.8121C12.8547 23.9153 12.6791 23.9706 12.4991 23.9706C12.3192 23.9706 12.1436 23.9153 11.9961 23.8121C11.8487 23.7089 11.7366 23.5628 11.675 23.3937L8.98757 16.0089L1.60627 13.3232C1.43717 13.2616 1.29112 13.1495 1.18791 13.0021C1.08471 12.8547 1.02935 12.6791 1.02935 12.4991C1.02935 12.3192 1.08471 12.1436 1.18791 11.9961C1.29112 11.8487 1.43717 11.7366 1.60627 11.675Z" stroke="url(#paint0_linear_3_3986)" stroke-width="2" stroke-linecap="round" stroke-linejoin="round"/>
<defs>
<linearGradient id="paint0_linear_3_3986" x1="0.744427" y1="12.4979" x2="25.1341" y2="12.4979" gradientUnits="userSpaceOnUse">
<stop stop-color="#27AE60"/>
<stop offset="1" stop-color="#0052CC"/>
</linearGradient>
</defs>
</svg>
